<svg width="1600" height="780" viewBox="0 0 1600 780" fill="none" xmlns="http://www.w3.org/2000/svg">
<rect width="1600" height="780" fill="url(#paint0_linear_564_613)"/>
<path d="M484.375 488.433V448.608H498.571C501.669 448.608 504.236 449.172 506.271 450.3C508.307 451.428 509.83 452.97 510.841 454.928C511.852 456.873 512.358 459.063 512.358 461.501C512.358 463.951 511.846 466.155 510.822 468.112C509.81 470.057 508.281 471.6 506.232 472.74C504.197 473.868 501.637 474.432 498.551 474.432H488.79V469.337H498.007C499.964 469.337 501.552 469 502.771 468.326C503.99 467.639 504.884 466.706 505.455 465.526C506.025 464.346 506.31 463.004 506.31 461.501C506.31 459.997 506.025 458.662 505.455 457.495C504.884 456.328 503.983 455.414 502.752 454.753C501.533 454.092 499.925 453.761 497.929 453.761H490.384V488.433H484.375ZM531.136 488.433H524.758L539.09 448.608H546.032L560.363 488.433H553.985L542.726 455.842H542.415L531.136 488.433ZM532.206 472.838H552.896V477.893H532.206V472.838ZM571.572 448.608H578.398L588.801 466.712H589.229L599.633 448.608H606.458L592.01 472.799V488.433H586.021V472.799L571.572 448.608ZM655.177 488.433H648.799L663.13 448.608H670.072L684.404 488.433H678.026L666.767 455.842H666.455L655.177 488.433ZM656.246 472.838H676.937V477.893H656.246V472.838ZM724.15 459.07C723.942 457.229 723.087 455.803 721.583 454.792C720.079 453.768 718.186 453.256 715.905 453.256C714.271 453.256 712.858 453.515 711.666 454.033C710.473 454.539 709.546 455.239 708.885 456.134C708.237 457.015 707.913 458.02 707.913 459.148C707.913 460.094 708.133 460.911 708.574 461.598C709.027 462.285 709.617 462.862 710.343 463.329C711.082 463.782 711.873 464.165 712.716 464.476C713.558 464.774 714.369 465.02 715.146 465.215L719.036 466.226C720.306 466.537 721.609 466.958 722.944 467.49C724.279 468.021 725.517 468.722 726.658 469.59C727.799 470.459 728.72 471.535 729.42 472.818C730.133 474.102 730.489 475.638 730.489 477.427C730.489 479.682 729.906 481.685 728.739 483.436C727.585 485.186 725.906 486.566 723.703 487.577C721.512 488.589 718.861 489.094 715.749 489.094C712.768 489.094 710.188 488.621 708.01 487.675C705.832 486.728 704.127 485.387 702.896 483.649C701.664 481.899 700.983 479.825 700.854 477.427H706.882C706.999 478.866 707.465 480.065 708.282 481.024C709.112 481.971 710.168 482.677 711.452 483.144C712.748 483.598 714.168 483.824 715.71 483.824C717.409 483.824 718.919 483.559 720.241 483.027C721.576 482.483 722.627 481.731 723.391 480.771C724.156 479.799 724.539 478.665 724.539 477.368C724.539 476.189 724.202 475.223 723.528 474.471C722.866 473.719 721.965 473.097 720.825 472.604C719.697 472.112 718.42 471.677 716.994 471.301L712.288 470.018C709.099 469.149 706.571 467.872 704.704 466.187C702.85 464.502 701.923 462.272 701.923 459.498C701.923 457.203 702.546 455.2 703.79 453.489C705.035 451.778 706.72 450.449 708.846 449.503C710.972 448.543 713.37 448.064 716.041 448.064C718.737 448.064 721.116 448.537 723.178 449.483C725.252 450.43 726.885 451.732 728.078 453.392C729.271 455.038 729.893 456.931 729.945 459.07H724.15ZM774.278 448.608H781.104L791.507 466.712H791.935L802.339 448.608H809.164L794.716 472.799V488.433H788.727V472.799L774.278 448.608ZM859.994 468.521C859.994 472.773 859.216 476.429 857.661 479.488C856.105 482.535 853.972 484.881 851.263 486.527C848.566 488.161 845.5 488.978 842.065 488.978C838.617 488.978 835.538 488.161 832.828 486.527C830.132 484.881 828.006 482.528 826.45 479.469C824.894 476.409 824.117 472.76 824.117 468.521C824.117 464.268 824.894 460.619 826.45 457.573C828.006 454.513 830.132 452.167 832.828 450.533C835.538 448.887 838.617 448.064 842.065 448.064C845.5 448.064 848.566 448.887 851.263 450.533C853.972 452.167 856.105 454.513 857.661 457.573C859.216 460.619 859.994 464.268 859.994 468.521ZM854.044 468.521C854.044 465.28 853.519 462.551 852.469 460.334C851.431 458.104 850.005 456.419 848.19 455.278C846.388 454.124 844.347 453.547 842.065 453.547C839.77 453.547 837.722 454.124 835.92 455.278C834.118 456.419 832.692 458.104 831.642 460.334C830.605 462.551 830.086 465.28 830.086 468.521C830.086 471.762 830.605 474.497 831.642 476.727C832.692 478.944 834.118 480.629 835.92 481.783C837.722 482.923 839.77 483.494 842.065 483.494C844.347 483.494 846.388 482.923 848.19 481.783C850.005 480.629 851.431 478.944 852.469 476.727C853.519 474.497 854.044 471.762 854.044 468.521ZM905.69 448.608H911.719V474.802C911.719 477.589 911.064 480.058 909.755 482.21C908.445 484.349 906.604 486.035 904.232 487.266C901.86 488.485 899.079 489.094 895.89 489.094C892.714 489.094 889.939 488.485 887.567 487.266C885.194 486.035 883.354 484.349 882.044 482.21C880.735 480.058 880.08 477.589 880.08 474.802V448.608H886.089V474.315C886.089 476.117 886.484 477.718 887.275 479.119C888.079 480.519 889.213 481.621 890.678 482.424C892.143 483.215 893.88 483.611 895.89 483.611C897.912 483.611 899.656 483.215 901.121 482.424C902.598 481.621 903.726 480.519 904.504 479.119C905.295 477.718 905.69 476.117 905.69 474.315V448.608ZM987.088 461.19C986.712 460.01 986.206 458.953 985.571 458.02C984.949 457.074 984.203 456.27 983.335 455.609C982.466 454.934 981.474 454.422 980.359 454.072C979.258 453.722 978.045 453.547 976.723 453.547C974.48 453.547 972.458 454.124 970.656 455.278C968.854 456.432 967.428 458.124 966.378 460.353C965.341 462.57 964.822 465.286 964.822 468.501C964.822 471.729 965.347 474.458 966.397 476.688C967.447 478.918 968.886 480.609 970.714 481.763C972.542 482.917 974.623 483.494 976.956 483.494C979.121 483.494 981.008 483.053 982.615 482.172C984.236 481.29 985.487 480.045 986.368 478.438C987.263 476.817 987.71 474.912 987.71 472.721L989.266 473.013H977.87V468.054H993.524V472.585C993.524 475.929 992.811 478.833 991.385 481.296C989.972 483.747 988.015 485.639 985.513 486.975C983.024 488.31 980.172 488.978 976.956 488.978C973.353 488.978 970.189 488.148 967.467 486.489C964.757 484.829 962.644 482.476 961.128 479.43C959.611 476.37 958.852 472.74 958.852 468.54C958.852 465.364 959.293 462.512 960.175 459.984C961.056 457.456 962.294 455.31 963.889 453.547C965.496 451.771 967.383 450.417 969.548 449.483C971.726 448.537 974.104 448.064 976.684 448.064C978.836 448.064 980.839 448.381 982.693 449.016C984.56 449.652 986.219 450.553 987.671 451.719C989.136 452.886 990.348 454.273 991.307 455.881C992.267 457.475 992.915 459.245 993.252 461.19H987.088ZM1048.34 468.521C1048.34 472.773 1047.56 476.429 1046.01 479.488C1044.45 482.535 1042.32 484.881 1039.61 486.527C1036.91 488.161 1033.85 488.978 1030.41 488.978C1026.96 488.978 1023.88 488.161 1021.17 486.527C1018.48 484.881 1016.35 482.528 1014.8 479.469C1013.24 476.409 1012.46 472.76 1012.46 468.521C1012.46 464.268 1013.24 460.619 1014.8 457.573C1016.35 454.513 1018.48 452.167 1021.17 450.533C1023.88 448.887 1026.96 448.064 1030.41 448.064C1033.85 448.064 1036.91 448.887 1039.61 450.533C1042.32 452.167 1044.45 454.513 1046.01 457.573C1047.56 460.619 1048.34 464.268 1048.34 468.521ZM1042.39 468.521C1042.39 465.28 1041.87 462.551 1040.82 460.334C1039.78 458.104 1038.35 456.419 1036.54 455.278C1034.74 454.124 1032.69 453.547 1030.41 453.547C1028.12 453.547 1026.07 454.124 1024.27 455.278C1022.46 456.419 1021.04 458.104 1019.99 460.334C1018.95 462.551 1018.43 465.28 1018.43 468.521C1018.43 471.762 1018.95 474.497 1019.99 476.727C1021.04 478.944 1022.46 480.629 1024.27 481.783C1026.07 482.923 1028.12 483.494 1030.41 483.494C1032.69 483.494 1034.74 482.923 1036.54 481.783C1038.35 480.629 1039.78 478.944 1040.82 476.727C1041.87 474.497 1042.39 471.762 1042.39 468.521ZM1092.77 486.664L1089.27 483.202L1101.43 471.049H1070.9V465.993H1101.43L1089.27 453.858L1092.77 450.378L1110.92 468.521L1092.77 486.664Z" fill="white" fill-opacity="0.8"/>
<g clip-path="url(#clip0_564_613)">
<path d="M575.847 376.489C546.052 376.489 528.892 358.798 528.892 327.805C528.892 296.812 546.052 279.253 575.847 279.253C605.776 279.253 622.936 296.812 622.936 327.805C622.936 358.798 605.776 376.489 575.847 376.489ZM555.496 327.805C555.496 347.225 562.945 356.803 575.847 356.803C588.883 356.803 596.332 347.225 596.332 327.805C596.332 308.517 588.883 298.807 575.847 298.807C562.945 298.807 555.496 308.517 555.496 327.805ZM637.676 327.805C637.676 296.945 654.835 279.253 684.631 279.253C708.84 279.253 723.605 288.964 728.926 310.912C729.059 312.508 728.26 313.572 726.797 313.572H704.716C703.386 313.572 702.056 312.641 701.79 311.444C698.731 302.132 693.011 298.807 684.764 298.807C671.728 298.807 664.279 308.517 664.279 327.805C664.279 347.225 671.728 356.803 684.764 356.803C693.011 356.803 698.731 353.61 701.79 344.299C702.189 342.969 703.386 342.171 704.716 342.171H726.797C728.26 342.171 729.192 343.368 728.926 344.831C723.738 366.912 708.84 376.489 684.631 376.489C654.835 376.489 637.676 358.798 637.676 327.805Z" fill="white"/>
<path d="M749.064 281.382V281.249H769.017C770.48 281.249 771.677 282.579 771.677 283.909V310.113C771.677 310.513 772.342 310.912 772.741 310.513L796.684 283.244C797.748 281.914 799.345 281.249 800.941 281.249H825.815C827.544 281.249 828.342 282.978 827.145 284.308L792.827 323.016C792.162 323.681 792.162 324.878 792.827 325.676L831.269 371.434C832.333 372.765 831.535 374.361 829.939 374.361H805.064C803.468 374.361 801.739 373.696 800.675 372.366L772.608 338.978C772.209 338.579 771.677 338.845 771.677 339.377V371.7C771.677 373.164 770.347 374.361 769.017 374.361H749.064C747.468 374.361 746.404 373.164 746.404 371.7V284.042C746.404 282.579 747.601 281.382 749.064 281.382Z" fill="#FCFCFC"/>
<path d="M849.014 281.382V281.249H922.041C923.504 281.249 924.701 282.579 924.701 283.909V298.275C924.701 299.738 923.504 300.935 922.041 300.935H874.288C872.691 300.935 871.627 302.132 871.627 303.596V315.301C871.627 316.764 872.824 317.961 874.288 317.961H916.72C918.183 317.961 919.38 319.159 919.38 320.622V334.988C919.38 336.451 918.183 337.648 916.72 337.648H874.288C872.691 337.648 871.627 338.845 871.627 340.308V371.7C871.627 373.164 870.297 374.361 868.967 374.361H849.014C847.418 374.361 846.354 373.164 846.354 371.7V284.042C846.354 282.579 847.551 281.382 849.014 281.382ZM944.028 281.382V281.249H1017.05C1018.52 281.249 1019.71 282.579 1019.71 283.909V298.275C1019.71 299.738 1018.52 300.935 1017.05 300.935H969.301C967.705 300.935 966.641 302.132 966.641 303.596V315.301C966.641 316.764 967.838 317.961 969.301 317.961H1011.73C1013.2 317.961 1014.39 319.159 1014.39 320.622V334.988C1014.39 336.451 1013.2 337.648 1011.73 337.648H969.301C967.705 337.648 966.641 338.845 966.641 340.308V352.014C966.641 353.477 967.838 354.674 969.301 354.674H1017.05C1018.52 354.674 1019.71 355.871 1019.71 357.335V371.7C1019.71 373.164 1018.52 374.361 1017.05 374.361H944.028C942.432 374.361 941.368 373.164 941.368 371.7V284.042C941.368 282.579 942.565 281.382 944.028 281.382ZM1041.12 281.382V281.249H1114.15C1115.61 281.249 1116.81 282.579 1116.81 283.909V298.275C1116.81 299.738 1115.61 300.935 1114.15 300.935H1066.39C1064.8 300.935 1063.73 302.132 1063.73 303.596V315.301C1063.73 316.764 1064.93 317.961 1066.39 317.961H1108.83C1110.29 317.961 1111.49 319.159 1111.49 320.622V334.988C1111.49 336.451 1110.29 337.648 1108.83 337.648H1066.39C1064.8 337.648 1063.73 338.845 1063.73 340.308V352.014C1063.73 353.477 1064.93 354.674 1066.39 354.674H1114.15C1115.61 354.674 1116.81 355.871 1116.81 357.335V371.7C1116.81 373.164 1115.61 374.361 1114.15 374.361H1041.12C1039.52 374.361 1038.46 373.164 1038.46 371.7V284.042C1038.46 282.579 1039.66 281.382 1041.12 281.382Z" fill="#E55958"/>
<path d="M633.78 388.006H1116.84V413.909H633.78V404.458V388.006Z" fill="#E55958"/>
<path d="M488.16 280.194H514.063V413.911H488.16V280.194Z" fill="white"/>
<path d="M626.779 388.006L626.779 413.909L490.962 413.909C490.962 399.603 502.559 388.006 516.865 388.006L626.779 388.006Z" fill="white"/>
</g>
<defs>
<linearGradient id="paint0_linear_564_613" x1="800" y1="0" x2="800" y2="780" gradientUnits="userSpaceOnUse">
<stop/>
<stop offset="1" stop-color="#1C1C1C"/>
</linearGradient>
<clipPath id="clip0_564_613">
<rect width="636.578" height="140.321" fill="white" transform="translate(483.422 278)"/>
</clipPath>
</defs>
</svg>
