<svg width="937" height="439" viewBox="0 0 937 439" fill="none" xmlns="http://www.w3.org/2000/svg">
<g clip-path="url(#clip0_545_698)">
<path d="M115.15 103.606C119.18 100.934 123.904 99.591 129.322 99.591C132.319 99.591 135.109 100.019 137.693 100.875C140.262 101.732 142.55 102.957 144.528 104.566C146.506 106.175 148.13 108.109 149.385 110.368C150.64 112.641 151.481 115.225 151.895 118.118H174.304C173.581 112.051 171.957 106.662 169.418 101.953C166.879 97.2437 163.587 93.2578 159.571 90.01C155.541 86.7474 150.935 84.2673 145.739 82.5696C140.542 80.8571 134.903 80.0156 128.835 80.0156C119.623 80.0156 111.341 82.1267 103.975 86.3341C96.6081 90.5415 90.7768 96.668 86.4808 104.669C82.1554 112.671 80 122.399 80 133.826C80 145.252 82.1258 154.922 86.3775 162.938C90.6292 170.954 96.4162 177.081 103.768 181.303C111.12 185.54 119.461 187.651 128.806 187.651C135.523 187.651 141.546 186.632 146.89 184.61C152.234 182.587 156.84 179.812 160.708 176.328C164.576 172.829 167.661 168.858 169.964 164.414C172.267 159.956 173.714 155.335 174.29 150.523L151.88 150.419C151.363 153.209 150.448 155.704 149.149 157.889C147.835 160.074 146.196 161.919 144.218 163.44C142.24 164.96 139.981 166.112 137.442 166.894C134.903 167.677 132.142 168.075 129.175 168.075C123.89 168.075 119.225 166.776 115.209 164.193C111.179 161.595 108.049 157.771 105.82 152.678C103.591 147.599 102.469 141.325 102.469 133.855C102.469 126.385 103.576 120.407 105.791 115.313C108.005 110.22 111.135 106.323 115.15 103.651V103.606Z" fill="black"/>
<path d="M229.812 126.681H228.794L205.292 82.2891H180.889L218.489 148.928V185.363H240.117V148.928L277.718 82.2891H253.315L229.812 126.681Z" fill="black"/>
<path d="M353.111 181.628C358.381 179.147 362.367 175.767 365.069 171.486C367.77 167.204 369.114 162.333 369.114 156.87C369.114 151.807 368.036 147.437 365.895 143.761C363.74 140.085 360.95 137.221 357.51 135.184C354.07 133.132 350.395 132.025 346.468 131.862V130.844C350.055 130.047 353.259 128.674 356.049 126.754C358.854 124.821 361.068 122.34 362.677 119.299C364.286 116.258 365.084 112.73 365.084 108.7C365.084 103.533 363.814 98.971 361.26 94.985C358.721 91.0138 354.912 87.8989 349.834 85.655C344.77 83.411 338.451 82.2891 330.863 82.2891H289.602V185.348H333.639C341.345 185.348 347.841 184.108 353.111 181.628ZM311.391 167.544V99.901H327.94C332.783 99.901 336.518 101.038 339.145 103.326C341.773 105.599 343.102 108.611 343.102 112.331C343.102 115.048 342.423 117.38 341.065 119.329C339.706 121.277 337.846 122.769 335.528 123.831C333.683 124.658 331.616 125.175 329.358 125.337V140.159H329.653C333.152 140.159 336.163 140.779 338.688 142.019C341.227 143.259 343.176 144.972 344.549 147.157C345.936 149.341 346.615 151.851 346.615 154.7C346.615 158.598 345.228 161.713 342.437 164.045C339.662 166.378 335.233 167.544 329.151 167.544H311.391Z" fill="black"/>
<path d="M369.231 308.706C365.791 306.654 362.115 305.546 358.188 305.384V304.365C361.776 303.568 364.979 302.195 367.769 300.276C370.574 298.342 372.789 295.862 374.398 292.821C376.007 289.78 376.804 286.252 376.804 282.221C376.804 277.054 375.535 272.493 372.981 268.507C370.441 264.536 366.633 261.421 361.554 259.177C356.491 256.933 350.172 255.811 342.584 255.811H301.322V358.87H345.36C353.066 358.87 359.561 357.629 364.832 355.149C370.102 352.669 374.088 349.289 376.789 345.007C379.491 340.726 380.834 335.854 380.834 330.392C380.834 325.329 379.757 320.959 377.616 317.283C375.461 313.607 372.671 310.743 369.231 308.706ZM354.158 337.567C351.383 339.899 346.954 341.066 340.872 341.066H323.112V273.423H339.661C344.503 273.423 348.238 274.559 350.866 276.848C353.494 279.121 354.822 282.133 354.822 285.853C354.822 288.569 354.143 290.902 352.785 292.851C351.427 294.799 349.567 296.29 347.249 297.353C345.404 298.18 343.337 298.697 341.078 298.859V313.681H341.374C344.872 313.681 347.884 314.301 350.408 315.541C352.948 316.781 354.896 318.493 356.269 320.678C357.657 322.863 358.336 325.373 358.336 328.222C358.336 332.119 356.948 335.234 354.158 337.567Z" fill="black"/>
<path d="M454.03 181.331C461.455 177.124 467.316 171.012 471.627 162.996C475.937 154.98 478.093 145.266 478.093 133.84C478.093 122.413 475.937 112.699 471.627 104.683C467.316 96.6669 461.44 90.5551 454.03 86.3478C446.604 82.1404 438.278 80.0293 429.036 80.0293C419.795 80.0293 411.365 82.1404 403.969 86.3478C396.573 90.5551 390.712 96.6817 386.416 104.683C382.12 112.699 379.965 122.413 379.965 133.84C379.965 145.266 382.12 154.935 386.416 162.952C390.712 170.968 396.558 177.094 403.969 181.317C411.365 185.553 419.721 187.664 429.036 187.664C438.351 187.664 446.604 185.553 454.03 181.346V181.331ZM405.726 152.544C403.526 147.466 402.419 141.221 402.419 133.825C402.419 126.429 403.526 120.184 405.726 115.106C407.925 110.027 411.026 106.174 415.012 103.546C418.998 100.919 423.677 99.6047 429.036 99.6047C434.395 99.6047 439.06 100.919 443.061 103.546C447.047 106.174 450.147 110.027 452.347 115.106C454.546 120.184 455.653 126.429 455.653 133.825C455.653 141.221 454.546 147.466 452.347 152.544C450.147 157.622 447.047 161.475 443.061 164.103C439.075 166.731 434.395 168.045 429.036 168.045C423.677 168.045 419.012 166.731 415.012 164.103C411.011 161.475 407.925 157.622 405.726 152.544Z" fill="black"/>
<path d="M579.644 167.013C583.527 160.414 585.476 152.531 585.476 143.334V130.151H541.675V146.803H564.143C564.055 150.981 563.125 154.627 561.324 157.742C559.434 161.019 556.703 163.544 553.145 165.33C549.587 167.116 545.306 168.017 540.287 168.017C534.766 168.017 529.982 166.674 525.923 164.002C521.863 161.329 518.733 157.432 516.519 152.324C514.304 147.216 513.197 141.016 513.197 133.723C513.197 126.43 514.319 120.26 516.563 115.196C518.807 110.132 521.951 106.279 525.996 103.622C530.027 100.965 534.721 99.6359 540.08 99.6359C542.944 99.6359 545.557 99.9903 547.919 100.714C550.281 101.422 552.392 102.456 554.252 103.799C556.113 105.142 557.677 106.781 558.977 108.7C560.276 110.619 561.279 112.834 561.988 115.314H584.472C583.763 110.132 582.139 105.393 579.615 101.083C577.09 96.772 573.843 93.0518 569.886 89.9221C565.915 86.7924 561.383 84.3565 556.275 82.644C551.167 80.9168 545.646 80.0605 539.711 80.0605C532.787 80.0605 526.38 81.2711 520.446 83.6922C514.526 86.1133 509.329 89.6416 504.856 94.2771C500.398 98.9126 496.929 104.552 494.463 111.225C491.998 117.883 490.758 125.456 490.758 133.945C490.758 144.987 492.825 154.509 496.973 162.54C501.107 170.556 506.894 176.742 514.319 181.097C521.745 185.437 530.366 187.607 540.184 187.607C548.967 187.607 556.777 185.821 563.582 182.263C570.388 178.705 575.747 173.627 579.63 167.028L579.644 167.013Z" fill="black"/>
<path d="M106.321 255.795H84.5312L84.5312 358.868H150.506V340.902H106.321L106.321 255.795Z" fill="black"/>
<path d="M211.904 255.795L176.326 358.868H199.681L207.328 335.366H244.545L252.177 358.868H275.532L239.998 255.795H211.919H211.904ZM212.849 318.359L225.545 279.356H226.357L239.024 318.359H212.864H212.849Z" fill="black"/>
<path d="M478.004 309.281C475.302 306.875 472.113 304.853 468.437 303.214C464.747 301.575 460.702 300.247 456.303 299.272L447.223 297.102C445.024 296.615 442.942 296.01 441.008 295.301C439.074 294.592 437.362 293.751 435.871 292.791C434.395 291.817 433.228 290.666 432.387 289.307C431.545 287.964 431.162 286.384 431.221 284.569C431.221 282.398 431.855 280.45 433.125 278.752C434.395 277.04 436.225 275.696 438.631 274.737C441.038 273.762 443.976 273.275 447.46 273.275C452.597 273.275 456.657 274.382 459.654 276.582C462.651 278.782 464.348 281.882 464.732 285.853H485.208C485.105 279.83 483.496 274.545 480.366 269.968C477.236 265.392 472.881 261.834 467.271 259.265C461.661 256.696 455.107 255.412 447.607 255.412C440.108 255.412 433.656 256.696 427.869 259.265C422.082 261.834 417.536 265.406 414.229 269.968C410.922 274.545 409.283 279.889 409.313 286.001C409.283 293.47 411.734 299.405 416.665 303.819C421.595 308.233 428.327 311.466 436.845 313.533L447.843 316.294C451.534 317.179 454.649 318.169 457.188 319.261C459.742 320.353 461.676 321.667 463.005 323.203C464.333 324.738 464.998 326.657 464.998 328.931C464.998 331.366 464.26 333.522 462.783 335.397C461.307 337.272 459.226 338.733 456.539 339.781C453.852 340.829 450.707 341.361 447.091 341.361C443.474 341.361 440.108 340.8 437.2 339.663C434.291 338.526 431.974 336.829 430.246 334.585C428.519 332.326 427.545 329.506 427.308 326.126H406.641C406.803 333.389 408.575 339.486 411.94 344.402C415.306 349.318 420.016 353.023 426.054 355.533C432.092 358.028 439.192 359.283 447.342 359.283C455.491 359.283 462.591 358.043 468.437 355.563C474.269 353.082 478.757 349.584 481.857 345.051C484.972 340.534 486.537 335.175 486.566 328.99C486.537 324.782 485.769 321.047 484.278 317.785C482.787 314.522 480.691 311.702 477.989 309.296L478.004 309.281Z" fill="black"/>
<path d="M647.154 81.5215H620.582V359.061H647.154V81.5215Z" fill="black" fill-opacity="0.9"/>
<path d="M647.154 81.5215H620.582V359.061H647.154V81.5215Z" fill="url(#paint0_linear_545_698)"/>
<path d="M546.487 220.291H519.914V359.061H546.487V220.291Z" fill="black" fill-opacity="0.9"/>
<path d="M546.487 220.291H519.914V359.061H546.487V220.291Z" fill="url(#paint1_linear_545_698)"/>
<path d="M596.828 220.291H570.255V359.061H596.828V220.291Z" fill="black" fill-opacity="0.9"/>
<path d="M596.828 220.291H570.255V359.061H596.828V220.291Z" fill="url(#paint2_linear_545_698)"/>
<path d="M697.495 81.5215H670.922V359.061H697.495V81.5215Z" fill="black" fill-opacity="0.9"/>
<path d="M697.495 81.5215H670.922V359.061H697.495V81.5215Z" fill="url(#paint3_linear_545_698)"/>
<path d="M747.836 81.5215H721.263V359.061H747.836V81.5215Z" fill="black" fill-opacity="0.9"/>
<path d="M747.836 81.5215H721.263V359.061H747.836V81.5215Z" fill="url(#paint4_linear_545_698)"/>
<path d="M757.861 88.8278H771.827V126.296H781.364V88.8278H795.329V80.9297H757.861V88.8278Z" fill="black"/>
<path d="M843.101 80.9297L830.538 111.415H830.007L817.429 80.9297H805.545V126.296H814.904V96.652H815.274L827.084 126.074H833.461L845.271 96.7701H845.641V126.296H855V80.9297L843.101 80.9297Z" fill="black"/>
</g>
<defs>
<linearGradient id="paint0_linear_545_698" x1="747.836" y1="220.291" x2="519.914" y2="220.291" gradientUnits="userSpaceOnUse">
<stop stop-color="#FF9A4E"/>
<stop offset="0.514529" stop-color="#EB648B"/>
<stop offset="1" stop-color="#B471E0"/>
</linearGradient>
<linearGradient id="paint1_linear_545_698" x1="747.836" y1="220.291" x2="519.914" y2="220.291" gradientUnits="userSpaceOnUse">
<stop stop-color="#FF9A4E"/>
<stop offset="0.514529" stop-color="#EB648B"/>
<stop offset="1" stop-color="#B471E0"/>
</linearGradient>
<linearGradient id="paint2_linear_545_698" x1="747.836" y1="220.291" x2="519.914" y2="220.291" gradientUnits="userSpaceOnUse">
<stop stop-color="#FF9A4E"/>
<stop offset="0.514529" stop-color="#EB648B"/>
<stop offset="1" stop-color="#B471E0"/>
</linearGradient>
<linearGradient id="paint3_linear_545_698" x1="747.836" y1="220.291" x2="519.914" y2="220.291" gradientUnits="userSpaceOnUse">
<stop stop-color="#FF9A4E"/>
<stop offset="0.514529" stop-color="#EB648B"/>
<stop offset="1" stop-color="#B471E0"/>
</linearGradient>
<linearGradient id="paint4_linear_545_698" x1="747.836" y1="220.291" x2="519.914" y2="220.291" gradientUnits="userSpaceOnUse">
<stop stop-color="#FF9A4E"/>
<stop offset="0.514529" stop-color="#EB648B"/>
<stop offset="1" stop-color="#B471E0"/>
</linearGradient>
<clipPath id="clip0_545_698">
<rect width="775" height="279.267" fill="white" transform="translate(80 80)"/>
</clipPath>
</defs>
</svg>
