<svg width="1600" height="780" viewBox="0 0 1600 780" fill="none" xmlns="http://www.w3.org/2000/svg">
<rect width="1600" height="780" fill="url(#paint0_linear_562_502)"/>
<path d="M495.182 446.864V332.318H555.563L574.545 343.282V394.336L555.563 405.3H518.091V446.864H495.182ZM518.091 351.955V385.664H551.636V351.955H518.091ZM597.454 446.864V332.318H620.363V446.864H597.454ZM638.293 446.864L675.275 388.282L639.929 332.318H665.784L688.202 367.827L710.784 332.318H736.638L701.129 388.282L738.275 446.864H712.42L688.202 408.736L664.148 446.864H638.293ZM753.024 351.955V332.318H830.751V347.046L779.206 426.9V427.227H830.751V446.864H749.751V432.136L801.297 352.282V351.955H753.024ZM876.525 397.773V427.227H922.179V446.864H853.615V332.318H922.179V351.955H876.525V378.136H912.361V397.773H876.525ZM966.333 397.773V427.227H1011.99V446.864H943.424V332.318H1011.99V351.955H966.333V378.136H1002.17V397.773H966.333Z" fill="#FCFCFC"/>
<path d="M1052.05 432.035L1052.05 441.8L1044.83 441.8L1044.83 432.035C1044.83 430.553 1044.52 429.36 1043.9 428.458C1043.25 427.534 1042.36 426.868 1041.22 426.46C1040.08 426.03 1038.79 425.815 1037.35 425.815C1035.96 425.815 1034.65 426.03 1033.42 426.46C1032.18 426.868 1031.18 427.534 1030.42 428.458C1029.67 429.36 1029.3 430.553 1029.3 432.035L1029.3 439.157L1069 439.157L1069 447.794L1022.08 447.794L1022.08 432.035C1022.08 428.92 1022.73 426.256 1024.04 424.043C1025.35 421.808 1027.16 420.09 1029.46 418.887C1031.74 417.683 1034.35 417.082 1037.29 417.082C1040.34 417.082 1042.96 417.683 1045.15 418.887C1047.34 420.09 1049.04 421.808 1050.24 424.043C1051.45 426.256 1052.05 428.92 1052.05 432.035ZM1041.8 373.468L1049.7 373.468C1053 373.468 1055.91 373.854 1058.4 374.628C1060.89 375.401 1062.97 376.519 1064.65 377.979C1066.3 379.44 1067.55 381.191 1068.39 383.232C1069.23 385.273 1069.64 387.529 1069.64 390C1069.64 392.492 1069.23 394.759 1068.39 396.8C1067.55 398.841 1066.3 400.603 1064.65 402.085C1062.97 403.546 1060.89 404.685 1058.4 405.501C1055.91 406.296 1053 406.693 1049.7 406.693L1041.8 406.693C1038.43 406.693 1035.47 406.296 1032.94 405.501C1030.4 404.706 1028.29 403.578 1026.59 402.117C1024.89 400.635 1023.61 398.873 1022.75 396.832C1021.87 394.791 1021.43 392.535 1021.43 390.064C1021.43 387.572 1021.87 385.316 1022.75 383.297C1023.61 381.256 1024.89 379.505 1026.59 378.044C1028.29 376.562 1030.4 375.434 1032.94 374.66C1035.47 373.865 1038.43 373.468 1041.8 373.468ZM1049.7 382.04L1041.74 382.04C1039.44 382.04 1037.46 382.212 1035.81 382.556C1034.15 382.899 1032.81 383.415 1031.78 384.103C1030.73 384.79 1029.95 385.639 1029.46 386.648C1028.96 387.637 1028.72 388.775 1028.72 390.064C1028.72 391.375 1028.96 392.535 1029.46 393.545C1029.95 394.533 1030.73 395.371 1031.78 396.059C1032.81 396.725 1034.15 397.229 1035.81 397.573C1037.46 397.917 1039.44 398.089 1041.74 398.089L1049.7 398.089C1051.95 398.089 1053.89 397.917 1055.5 397.573C1057.11 397.229 1058.42 396.714 1059.43 396.026C1060.44 395.317 1061.19 394.469 1061.68 393.48C1062.16 392.471 1062.39 391.311 1062.39 390C1062.39 388.711 1062.16 387.572 1061.68 386.584C1061.19 385.574 1060.44 384.736 1059.43 384.07C1058.42 383.383 1057.11 382.878 1055.5 382.556C1053.89 382.212 1051.95 382.04 1049.7 382.04ZM1069 349.512L1069 357.73L1061.81 357.665L1061.81 349.512C1061.81 347.127 1061.38 345.247 1060.52 343.872C1059.64 342.476 1058.28 341.487 1056.43 340.907C1054.58 340.306 1052.2 340.005 1049.28 340.005L1041.77 340.005C1039.53 340.005 1037.63 340.166 1036.06 340.488C1034.47 340.811 1033.19 341.337 1032.2 342.068C1031.21 342.798 1030.48 343.754 1030.01 344.936C1029.53 346.117 1029.3 347.578 1029.3 349.318L1029.3 357.891L1022.08 357.891L1022.08 349.318C1022.08 346.611 1022.52 344.162 1023.4 341.971C1024.26 339.779 1025.53 337.9 1027.2 336.331C1028.88 334.741 1030.95 333.527 1033.42 332.69C1035.87 331.852 1038.67 331.433 1041.83 331.433L1049.28 331.433C1052.44 331.433 1055.24 331.852 1057.69 332.69C1060.14 333.527 1062.2 334.741 1063.88 336.331C1065.55 337.9 1066.83 339.801 1067.71 342.035C1068.57 344.248 1069 346.74 1069 349.512ZM1022.08 352.767L1069 352.767L1069 361.403L1022.08 361.403L1022.08 352.767Z" fill="#FCFCFC"/>
<path d="M1052.05 432.035L1052.05 441.8L1044.83 441.8L1044.83 432.035C1044.83 430.553 1044.52 429.36 1043.9 428.458C1043.25 427.534 1042.36 426.868 1041.22 426.46C1040.08 426.03 1038.79 425.815 1037.35 425.815C1035.96 425.815 1034.65 426.03 1033.42 426.46C1032.18 426.868 1031.18 427.534 1030.42 428.458C1029.67 429.36 1029.3 430.553 1029.3 432.035L1029.3 439.157L1069 439.157L1069 447.794L1022.08 447.794L1022.08 432.035C1022.08 428.92 1022.73 426.256 1024.04 424.043C1025.35 421.808 1027.16 420.09 1029.46 418.887C1031.74 417.683 1034.35 417.082 1037.29 417.082C1040.34 417.082 1042.96 417.683 1045.15 418.887C1047.34 420.09 1049.04 421.808 1050.24 424.043C1051.45 426.256 1052.05 428.92 1052.05 432.035ZM1041.8 373.468L1049.7 373.468C1053 373.468 1055.91 373.854 1058.4 374.628C1060.89 375.401 1062.97 376.519 1064.65 377.979C1066.3 379.44 1067.55 381.191 1068.39 383.232C1069.23 385.273 1069.64 387.529 1069.64 390C1069.64 392.492 1069.23 394.759 1068.39 396.8C1067.55 398.841 1066.3 400.603 1064.65 402.085C1062.97 403.546 1060.89 404.685 1058.4 405.501C1055.91 406.296 1053 406.693 1049.7 406.693L1041.8 406.693C1038.43 406.693 1035.47 406.296 1032.94 405.501C1030.4 404.706 1028.29 403.578 1026.59 402.117C1024.89 400.635 1023.61 398.873 1022.75 396.832C1021.87 394.791 1021.43 392.535 1021.43 390.064C1021.43 387.572 1021.87 385.316 1022.75 383.297C1023.61 381.256 1024.89 379.505 1026.59 378.044C1028.29 376.562 1030.4 375.434 1032.94 374.66C1035.47 373.865 1038.43 373.468 1041.8 373.468ZM1049.7 382.04L1041.74 382.04C1039.44 382.04 1037.46 382.212 1035.81 382.556C1034.15 382.899 1032.81 383.415 1031.78 384.103C1030.73 384.79 1029.95 385.639 1029.46 386.648C1028.96 387.637 1028.72 388.775 1028.72 390.064C1028.72 391.375 1028.96 392.535 1029.46 393.545C1029.95 394.533 1030.73 395.371 1031.78 396.059C1032.81 396.725 1034.15 397.229 1035.81 397.573C1037.46 397.917 1039.44 398.089 1041.74 398.089L1049.7 398.089C1051.95 398.089 1053.89 397.917 1055.5 397.573C1057.11 397.229 1058.42 396.714 1059.43 396.026C1060.44 395.317 1061.19 394.469 1061.68 393.48C1062.16 392.471 1062.39 391.311 1062.39 390C1062.39 388.711 1062.16 387.572 1061.68 386.584C1061.19 385.574 1060.44 384.736 1059.43 384.07C1058.42 383.383 1057.11 382.878 1055.5 382.556C1053.89 382.212 1051.95 382.04 1049.7 382.04ZM1069 349.512L1069 357.73L1061.81 357.665L1061.81 349.512C1061.81 347.127 1061.38 345.247 1060.52 343.872C1059.64 342.476 1058.28 341.487 1056.43 340.907C1054.58 340.306 1052.2 340.005 1049.28 340.005L1041.77 340.005C1039.53 340.005 1037.63 340.166 1036.06 340.488C1034.47 340.811 1033.19 341.337 1032.2 342.068C1031.21 342.798 1030.48 343.754 1030.01 344.936C1029.53 346.117 1029.3 347.578 1029.3 349.318L1029.3 357.891L1022.08 357.891L1022.08 349.318C1022.08 346.611 1022.52 344.162 1023.4 341.971C1024.26 339.779 1025.53 337.9 1027.2 336.331C1028.88 334.741 1030.95 333.527 1033.42 332.69C1035.87 331.852 1038.67 331.433 1041.83 331.433L1049.28 331.433C1052.44 331.433 1055.24 331.852 1057.69 332.69C1060.14 333.527 1062.2 334.741 1063.88 336.331C1065.55 337.9 1066.83 339.801 1067.71 342.035C1068.57 344.248 1069 346.74 1069 349.512ZM1022.08 352.767L1069 352.767L1069 361.403L1022.08 361.403L1022.08 352.767Z" fill="url(#paint1_linear_562_502)"/>
<path d="M1036 382V401.5" stroke="#D22337" stroke-width="6"/>
<path d="M1045.5 382V401.5" stroke="#D22337" stroke-width="6"/>
<path d="M1055.5 382V401.5" stroke="#D22337" stroke-width="6"/>
<path d="M1044.3 299.813V296.198H1063.29V299.813H1055.94V320H1051.66V299.813H1044.3ZM1066.95 296.198H1072.23L1079.3 313.445H1079.57L1086.64 296.198H1091.92V320H1087.78V303.648H1087.56L1080.98 319.93H1077.89L1071.31 303.613H1071.09V320H1066.95V296.198Z" fill="#FCFCFC"/>
<defs>
<linearGradient id="paint0_linear_562_502" x1="800" y1="0" x2="800" y2="780" gradientUnits="userSpaceOnUse">
<stop/>
<stop offset="1" stop-color="#1C1C1C"/>
</linearGradient>
<linearGradient id="paint1_linear_562_502" x1="1046.5" y1="452" x2="1046.5" y2="328" gradientUnits="userSpaceOnUse">
<stop stop-color="#DB2439"/>
<stop offset="1" stop-color="#CC2235"/>
</linearGradient>
</defs>
</svg>
