<svg width="1600" height="780" viewBox="0 0 1600 780" fill="none" xmlns="http://www.w3.org/2000/svg">
<rect width="1600" height="780" fill="url(#paint0_linear_562_540)"/>
<path d="M652.929 370.827C652.588 367.389 651.125 364.719 648.54 362.815C645.955 360.912 642.446 359.96 638.014 359.96C635.003 359.96 632.46 360.386 630.386 361.239C628.313 362.062 626.722 363.213 625.614 364.69C624.534 366.168 623.994 367.844 623.994 369.719C623.938 371.281 624.264 372.645 624.974 373.81C625.713 374.974 626.722 375.983 628 376.835C629.278 377.659 630.756 378.384 632.432 379.009C634.108 379.605 635.898 380.116 637.801 380.543L645.642 382.418C649.449 383.27 652.943 384.406 656.125 385.827C659.307 387.247 662.063 388.994 664.392 391.068C666.722 393.142 668.526 395.585 669.804 398.398C671.111 401.21 671.778 404.435 671.807 408.071C671.778 413.412 670.415 418.043 667.716 421.963C665.045 425.855 661.182 428.881 656.125 431.04C651.097 433.17 645.031 434.236 637.929 434.236C630.884 434.236 624.747 433.156 619.52 430.997C614.321 428.838 610.259 425.642 607.332 421.409C604.435 417.148 602.915 411.878 602.773 405.599H620.628C620.827 408.526 621.665 410.969 623.142 412.929C624.648 414.861 626.651 416.324 629.151 417.318C631.679 418.284 634.534 418.767 637.716 418.767C640.841 418.767 643.554 418.312 645.855 417.403C648.185 416.494 649.989 415.23 651.267 413.611C652.545 411.991 653.185 410.131 653.185 408.028C653.185 406.068 652.602 404.42 651.438 403.085C650.301 401.75 648.625 400.614 646.409 399.676C644.222 398.739 641.537 397.886 638.355 397.119L628.852 394.733C621.494 392.943 615.685 390.145 611.423 386.338C607.162 382.531 605.045 377.403 605.074 370.955C605.045 365.67 606.452 361.054 609.293 357.105C612.162 353.156 616.097 350.074 621.097 347.858C626.097 345.642 631.778 344.534 638.142 344.534C644.619 344.534 650.273 345.642 655.102 347.858C659.96 350.074 663.739 353.156 666.438 357.105C669.136 361.054 670.528 365.628 670.614 370.827H652.929ZM684.218 433V345.727H743.025V360.94H702.67V381.736H739.999V396.949H702.67V417.787H743.195V433H684.218ZM772.737 433H752.964L783.092 345.727H806.871L836.956 433H817.183L795.322 365.67H794.641L772.737 433ZM771.501 398.696H818.206V413.099H771.501V398.696ZM847.46 433V345.727H882.403C888.824 345.727 894.179 346.679 898.469 348.582C902.759 350.486 905.983 353.128 908.142 356.509C910.301 359.861 911.381 363.724 911.381 368.099C911.381 371.509 910.699 374.506 909.335 377.091C907.972 379.648 906.097 381.75 903.71 383.398C901.352 385.017 898.653 386.168 895.614 386.849V387.702C898.938 387.844 902.048 388.781 904.946 390.514C907.872 392.247 910.244 394.676 912.062 397.801C913.881 400.898 914.79 404.591 914.79 408.881C914.79 413.511 913.639 417.645 911.338 421.281C909.065 424.889 905.699 427.744 901.239 429.847C896.778 431.949 891.281 433 884.747 433H847.46ZM865.912 417.915H880.955C886.097 417.915 889.847 416.935 892.205 414.974C894.563 412.986 895.741 410.344 895.741 407.048C895.741 404.634 895.159 402.503 893.994 400.656C892.83 398.81 891.168 397.361 889.009 396.31C886.878 395.259 884.335 394.733 881.381 394.733H865.912V417.915ZM865.912 382.247H879.591C882.119 382.247 884.364 381.807 886.324 380.926C888.313 380.017 889.875 378.739 891.011 377.091C892.176 375.443 892.759 373.469 892.759 371.168C892.759 368.014 891.636 365.472 889.392 363.54C887.176 361.608 884.023 360.642 879.932 360.642H865.912V382.247ZM1007 389.364C1007 398.881 1005.19 406.977 1001.58 413.653C998.004 420.33 993.117 425.429 986.924 428.952C980.759 432.446 973.827 434.193 966.129 434.193C958.373 434.193 951.413 432.432 945.248 428.909C939.083 425.386 934.211 420.287 930.631 413.611C927.052 406.935 925.262 398.852 925.262 389.364C925.262 379.847 927.052 371.75 930.631 365.074C934.211 358.398 939.083 353.312 945.248 349.818C951.413 346.295 958.373 344.534 966.129 344.534C973.827 344.534 980.759 346.295 986.924 349.818C993.117 353.312 998.004 358.398 1001.58 365.074C1005.19 371.75 1007 379.847 1007 389.364ZM988.288 389.364C988.288 383.199 987.364 378 985.518 373.767C983.7 369.534 981.129 366.324 977.805 364.136C974.481 361.949 970.589 360.855 966.129 360.855C961.668 360.855 957.776 361.949 954.452 364.136C951.129 366.324 948.543 369.534 946.697 373.767C944.879 378 943.969 383.199 943.969 389.364C943.969 395.528 944.879 400.727 946.697 404.96C948.543 409.193 951.129 412.403 954.452 414.591C957.776 416.778 961.668 417.872 966.129 417.872C970.589 417.872 974.481 416.778 977.805 414.591C981.129 412.403 983.7 409.193 985.518 404.96C987.364 400.727 988.288 395.528 988.288 389.364ZM1013.36 360.94V345.727H1085.03V360.94H1058.31V433H1040.07V360.94H1013.36Z" fill="white"/>
<rect x="509" y="353" width="72" height="16" rx="4" fill="#7BD1EB"/>
<rect x="509" y="384" width="72" height="16" rx="4" fill="#7BD1EB"/>
<rect x="509" y="415" width="72" height="16" rx="4" fill="#7BD1EB"/>
<defs>
<linearGradient id="paint0_linear_562_540" x1="800" y1="0" x2="800" y2="780" gradientUnits="userSpaceOnUse">
<stop/>
<stop offset="1" stop-color="#1C1C1C"/>
</linearGradient>
</defs>
</svg>
