<svg width="1600" height="780" viewBox="0 0 1600 780" fill="none" xmlns="http://www.w3.org/2000/svg">
<rect width="1600" height="780" fill="url(#paint0_linear_562_461)"/>
<path d="M824.121 336.045C824.121 326.93 831.51 319.541 840.625 319.541H1072.95C1082.06 319.541 1089.45 326.93 1089.45 336.045V443.955C1089.45 453.07 1082.06 460.459 1072.95 460.459H840.625C831.51 460.459 824.121 453.07 824.121 443.955V336.045Z" fill="#FF6E61"/>
<mask id="path-3-inside-1_562_461" fill="white">
<path d="M510.547 336.045C510.547 326.93 517.936 319.541 527.051 319.541H840.625V460.459H527.051C517.936 460.459 510.547 453.07 510.547 443.955V336.045Z"/>
</mask>
<path d="M509.277 336.045C509.277 326.229 517.235 318.271 527.051 318.271H840.625V320.811H527.051C518.637 320.811 511.816 327.631 511.816 336.045H509.277ZM840.625 461.729H527.051C517.235 461.729 509.277 453.771 509.277 443.955H511.816C511.816 452.369 518.637 459.189 527.051 459.189H840.625V461.729ZM527.051 461.729C517.235 461.729 509.277 453.771 509.277 443.955V336.045C509.277 326.229 517.235 318.271 527.051 318.271V320.811C518.637 320.811 511.816 327.631 511.816 336.045V443.955C511.816 452.369 518.637 459.189 527.051 459.189V461.729ZM840.625 319.541V460.459V319.541Z" fill="#FF6E61" mask="url(#path-3-inside-1_562_461)"/>
<path d="M566.558 369.999C566.269 367.089 565.031 364.829 562.843 363.218C560.655 361.607 557.685 360.802 553.935 360.802C551.386 360.802 549.234 361.162 547.479 361.884C545.723 362.581 544.377 363.555 543.439 364.805C542.526 366.055 542.069 367.474 542.069 369.061C542.021 370.383 542.297 371.537 542.898 372.523C543.523 373.509 544.377 374.363 545.459 375.084C546.541 375.781 547.791 376.394 549.21 376.923C550.628 377.428 552.143 377.861 553.754 378.222L560.39 379.809C563.612 380.53 566.57 381.492 569.263 382.694C571.956 383.896 574.288 385.375 576.26 387.13C578.231 388.885 579.758 390.953 580.84 393.333C581.946 395.714 582.511 398.443 582.535 401.52C582.511 406.041 581.357 409.96 579.073 413.278C576.813 416.572 573.543 419.133 569.263 420.96C565.007 422.763 559.873 423.665 553.862 423.665C547.899 423.665 542.706 422.751 538.282 420.924C533.882 419.097 530.443 416.392 527.967 412.809C525.514 409.203 524.228 404.742 524.108 399.429H539.22C539.388 401.905 540.097 403.973 541.347 405.632C542.622 407.267 544.317 408.505 546.433 409.347C548.573 410.164 550.989 410.573 553.682 410.573C556.327 410.573 558.623 410.188 560.571 409.419C562.542 408.649 564.069 407.58 565.151 406.209C566.233 404.838 566.774 403.264 566.774 401.484C566.774 399.825 566.281 398.431 565.295 397.301C564.334 396.171 562.915 395.209 561.04 394.415C559.188 393.622 556.916 392.901 554.223 392.251L546.18 390.232C539.953 388.717 535.036 386.349 531.429 383.127C527.823 379.905 526.031 375.565 526.055 370.107C526.031 365.634 527.221 361.727 529.626 358.385C532.054 355.043 535.384 352.434 539.616 350.559C543.848 348.683 548.657 347.746 554.043 347.746C559.525 347.746 564.31 348.683 568.397 350.559C572.509 352.434 575.707 355.043 577.991 358.385C580.275 361.727 581.453 365.598 581.525 369.999H566.558ZM592.751 443.393V367.221H607.899V376.526H608.584C609.257 375.036 610.231 373.521 611.505 371.982C612.804 370.419 614.487 369.121 616.555 368.087C618.646 367.029 621.243 366.5 624.345 366.5C628.384 366.5 632.111 367.558 635.525 369.674C638.94 371.766 641.669 374.928 643.712 379.159C645.756 383.367 646.778 388.645 646.778 394.992C646.778 401.172 645.78 406.389 643.785 410.645C641.813 414.877 639.12 418.087 635.706 420.275C632.315 422.439 628.517 423.521 624.309 423.521C621.327 423.521 618.791 423.028 616.699 422.042C614.631 421.056 612.936 419.818 611.613 418.327C610.291 416.812 609.281 415.286 608.584 413.747H608.115V443.393H592.751ZM607.79 394.92C607.79 398.214 608.247 401.088 609.161 403.54C610.075 405.993 611.397 407.904 613.128 409.275C614.859 410.621 616.963 411.294 619.44 411.294C621.94 411.294 624.056 410.609 625.787 409.239C627.519 407.844 628.829 405.92 629.719 403.468C630.632 400.991 631.089 398.142 631.089 394.92C631.089 391.722 630.644 388.909 629.755 386.481C628.865 384.052 627.555 382.153 625.824 380.782C624.092 379.412 621.964 378.727 619.44 378.727C616.939 378.727 614.823 379.388 613.092 380.71C611.385 382.033 610.075 383.908 609.161 386.337C608.247 388.765 607.79 391.626 607.79 394.92ZM682.051 423.701C676.449 423.701 671.604 422.511 667.516 420.131C663.453 417.726 660.315 414.384 658.103 410.104C655.891 405.8 654.785 400.811 654.785 395.137C654.785 389.414 655.891 384.413 658.103 380.133C660.315 375.829 663.453 372.487 667.516 370.107C671.604 367.702 676.449 366.5 682.051 366.5C687.653 366.5 692.486 367.702 696.549 370.107C700.637 372.487 703.787 375.829 705.999 380.133C708.211 384.413 709.317 389.414 709.317 395.137C709.317 400.811 708.211 405.8 705.999 410.104C703.787 414.384 700.637 417.726 696.549 420.131C692.486 422.511 687.653 423.701 682.051 423.701ZM682.123 411.799C684.672 411.799 686.8 411.078 688.507 409.635C690.214 408.169 691.5 406.173 692.366 403.648C693.255 401.124 693.7 398.25 693.7 395.028C693.7 391.807 693.255 388.933 692.366 386.409C691.5 383.884 690.214 381.888 688.507 380.422C686.8 378.955 684.672 378.222 682.123 378.222C679.55 378.222 677.386 378.955 675.631 380.422C673.9 381.888 672.589 383.884 671.7 386.409C670.834 388.933 670.401 391.807 670.401 395.028C670.401 398.25 670.834 401.124 671.7 403.648C672.589 406.173 673.9 408.169 675.631 409.635C677.386 411.078 679.55 411.799 682.123 411.799ZM748.773 367.221V378.763H715.412V367.221H748.773ZM722.986 353.949H738.35V405.596C738.35 407.014 738.567 408.121 738.999 408.914C739.432 409.683 740.033 410.224 740.803 410.537C741.596 410.85 742.51 411.006 743.544 411.006C744.265 411.006 744.986 410.946 745.708 410.825C746.429 410.681 746.982 410.573 747.367 410.501L749.783 421.934C749.014 422.174 747.932 422.451 746.537 422.763C745.143 423.1 743.448 423.304 741.452 423.377C737.749 423.521 734.503 423.028 731.714 421.898C728.949 420.768 726.797 419.013 725.258 416.632C723.719 414.252 722.962 411.246 722.986 407.616V353.949ZM768.267 443.393C766.32 443.393 764.492 443.237 762.785 442.924C761.102 442.636 759.707 442.263 758.601 441.806L762.064 430.337C763.867 430.89 765.49 431.191 766.933 431.239C768.399 431.287 769.662 430.95 770.72 430.229C771.802 429.508 772.679 428.282 773.352 426.55L774.254 424.206L754.382 367.221H770.539L782.008 407.904H782.585L794.163 367.221H810.429L788.897 428.606C787.863 431.588 786.457 434.184 784.677 436.396C782.922 438.633 780.698 440.352 778.005 441.554C775.312 442.78 772.066 443.393 768.267 443.393Z" fill="#FCFCFC"/>
<path d="M839.273 361.631V348.756H899.936V361.631H877.322V422.619H861.886V361.631H839.273ZM917.897 423.665C914.362 423.665 911.213 423.052 908.448 421.826C905.682 420.575 903.494 418.736 901.883 416.308C900.297 413.855 899.503 410.801 899.503 407.147C899.503 404.069 900.068 401.484 901.198 399.392C902.328 397.301 903.867 395.618 905.815 394.343C907.762 393.069 909.974 392.107 912.451 391.458C914.951 390.809 917.572 390.352 920.313 390.087C923.535 389.751 926.132 389.438 928.104 389.15C930.075 388.837 931.506 388.38 932.396 387.779C933.285 387.178 933.73 386.288 933.73 385.11V384.894C933.73 382.61 933.009 380.842 931.566 379.592C930.147 378.342 928.128 377.717 925.507 377.717C922.742 377.717 920.542 378.33 918.907 379.556C917.272 380.758 916.19 382.273 915.661 384.1L901.451 382.946C902.172 379.58 903.591 376.671 905.707 374.218C907.822 371.742 910.551 369.842 913.894 368.52C917.26 367.173 921.155 366.5 925.579 366.5C928.657 366.5 931.602 366.861 934.415 367.582C937.252 368.303 939.765 369.421 941.953 370.936C944.165 372.451 945.908 374.399 947.183 376.779C948.457 379.135 949.094 381.96 949.094 385.255V422.619H934.523V414.937H934.091C933.201 416.668 932.011 418.195 930.52 419.517C929.029 420.816 927.238 421.838 925.146 422.583C923.054 423.304 920.638 423.665 917.897 423.665ZM922.297 413.062C924.557 413.062 926.553 412.617 928.284 411.727C930.015 410.813 931.374 409.587 932.359 408.048C933.345 406.51 933.838 404.766 933.838 402.819V396.94C933.357 397.253 932.696 397.541 931.855 397.806C931.037 398.046 930.111 398.274 929.077 398.491C928.044 398.683 927.01 398.864 925.976 399.032C924.942 399.176 924.004 399.308 923.163 399.429C921.359 399.693 919.784 400.114 918.438 400.691C917.091 401.268 916.045 402.049 915.3 403.035C914.555 403.997 914.182 405.199 914.182 406.642C914.182 408.734 914.939 410.333 916.454 411.439C917.993 412.521 919.941 413.062 922.297 413.062ZM985.972 444.547C980.995 444.547 976.727 443.862 973.168 442.492C969.634 441.145 966.821 439.306 964.729 436.974C962.637 434.641 961.279 432.02 960.653 429.111L974.864 427.2C975.296 428.306 975.982 429.339 976.919 430.301C977.857 431.263 979.095 432.032 980.634 432.609C982.197 433.211 984.096 433.511 986.333 433.511C989.675 433.511 992.428 432.694 994.592 431.059C996.78 429.448 997.874 426.743 997.874 422.944V412.809H997.225C996.551 414.348 995.541 415.803 994.195 417.173C992.849 418.544 991.117 419.662 989.001 420.527C986.886 421.393 984.361 421.826 981.428 421.826C977.268 421.826 973.481 420.864 970.067 418.94C966.676 416.993 963.972 414.023 961.952 410.032C959.956 406.017 958.958 400.943 958.958 394.812C958.958 388.537 959.98 383.295 962.024 379.087C964.068 374.879 966.785 371.73 970.175 369.638C973.589 367.546 977.328 366.5 981.391 366.5C984.493 366.5 987.09 367.029 989.182 368.087C991.274 369.121 992.957 370.419 994.231 371.982C995.529 373.521 996.527 375.036 997.225 376.526H997.802V367.221H1013.06V423.16C1013.06 427.873 1011.9 431.816 1009.6 434.99C1007.29 438.164 1004.09 440.544 1000 442.131C995.938 443.742 991.262 444.547 985.972 444.547ZM986.296 410.284C988.773 410.284 990.865 409.671 992.572 408.445C994.303 407.195 995.626 405.416 996.539 403.107C997.477 400.775 997.946 397.986 997.946 394.74C997.946 391.494 997.489 388.681 996.575 386.3C995.662 383.896 994.339 382.033 992.608 380.71C990.877 379.388 988.773 378.727 986.296 378.727C983.772 378.727 981.644 379.412 979.913 380.782C978.182 382.129 976.871 384.004 975.982 386.409C975.092 388.813 974.647 391.59 974.647 394.74C974.647 397.938 975.092 400.703 975.982 403.035C976.895 405.343 978.206 407.135 979.913 408.409C981.644 409.659 983.772 410.284 986.296 410.284ZM1071.38 383.018L1057.31 383.884C1057.07 382.682 1056.55 381.6 1055.76 380.638C1054.97 379.652 1053.92 378.871 1052.62 378.294C1051.35 377.693 1049.82 377.392 1048.04 377.392C1045.66 377.392 1043.65 377.897 1042.02 378.907C1040.38 379.893 1039.57 381.215 1039.57 382.874C1039.57 384.197 1040.1 385.315 1041.15 386.228C1042.21 387.142 1044.03 387.875 1046.6 388.428L1056.63 390.448C1062.01 391.554 1066.03 393.333 1068.67 395.786C1071.32 398.238 1072.64 401.46 1072.64 405.452C1072.64 409.082 1071.57 412.268 1069.43 415.009C1067.31 417.75 1064.4 419.89 1060.7 421.429C1057.02 422.944 1052.78 423.701 1047.97 423.701C1040.64 423.701 1034.79 422.174 1030.44 419.121C1026.11 416.043 1023.58 411.859 1022.83 406.57L1037.94 405.776C1038.4 408.012 1039.51 409.719 1041.26 410.898C1043.02 412.052 1045.26 412.629 1048.01 412.629C1050.7 412.629 1052.86 412.112 1054.5 411.078C1056.16 410.02 1057 408.662 1057.02 407.002C1057 405.608 1056.41 404.466 1055.26 403.576C1054.1 402.662 1052.32 401.965 1049.92 401.484L1040.32 399.573C1034.91 398.491 1030.89 396.615 1028.24 393.946C1025.62 391.278 1024.31 387.875 1024.31 383.74C1024.31 380.181 1025.27 377.116 1027.2 374.543C1029.14 371.97 1031.87 369.986 1035.38 368.592C1038.92 367.197 1043.05 366.5 1047.79 366.5C1054.79 366.5 1060.29 367.979 1064.31 370.936C1068.35 373.894 1070.7 377.921 1071.38 383.018Z" fill="black"/>
<path d="M1059.02 351.561V350.122H1067.6V351.561H1064.14V361.201H1062.47V351.561H1059.02ZM1069.49 350.122H1071.52L1075.05 358.734H1075.18L1078.7 350.122H1080.73V361.201H1079.14V353.184H1079.04L1075.77 361.185H1074.45L1071.18 353.178H1071.08V361.201H1069.49V350.122Z" fill="black"/>
<defs>
<linearGradient id="paint0_linear_562_461" x1="800" y1="0" x2="800" y2="780" gradientUnits="userSpaceOnUse">
<stop/>
<stop offset="1" stop-color="#1C1C1C"/>
</linearGradient>
</defs>
</svg>
