<svg width="1600" height="780" viewBox="0 0 1600 780" fill="none" xmlns="http://www.w3.org/2000/svg">
<rect width="1600" height="780" fill="url(#paint0_linear_562_488)"/>
<path d="M549.576 370.207C549.23 366.716 547.744 364.003 545.119 362.07C542.493 360.137 538.93 359.171 534.428 359.171C531.37 359.171 528.788 359.603 526.681 360.469C524.575 361.306 522.959 362.474 521.834 363.975C520.738 365.475 520.19 367.177 520.19 369.082C520.132 370.668 520.464 372.053 521.185 373.236C521.935 374.419 522.959 375.444 524.258 376.309C525.556 377.146 527.057 377.882 528.759 378.516C530.461 379.122 532.279 379.642 534.212 380.075L542.176 381.979C546.042 382.844 549.591 383.999 552.822 385.441C556.054 386.884 558.853 388.658 561.218 390.765C563.584 392.871 565.417 395.352 566.715 398.209C568.042 401.065 568.72 404.34 568.749 408.033C568.72 413.457 567.335 418.16 564.594 422.142C561.882 426.095 557.958 429.168 552.822 431.361C547.715 433.525 541.555 434.607 534.342 434.607C527.186 434.607 520.954 433.51 515.645 431.317C510.365 429.125 506.239 425.879 503.267 421.58C500.324 417.252 498.781 411.899 498.636 405.523H516.77C516.972 408.495 517.824 410.976 519.324 412.967C520.853 414.929 522.887 416.415 525.426 417.425C527.994 418.406 530.894 418.896 534.126 418.896C537.299 418.896 540.055 418.435 542.392 417.511C544.758 416.588 546.59 415.304 547.888 413.659C549.187 412.015 549.836 410.125 549.836 407.99C549.836 405.999 549.244 404.325 548.062 402.969C546.907 401.613 545.205 400.459 542.955 399.507C540.733 398.555 538.006 397.689 534.775 396.91L525.123 394.487C517.65 392.669 511.75 389.827 507.422 385.961C503.094 382.094 500.945 376.886 500.973 370.337C500.945 364.97 502.373 360.281 505.258 356.271C508.172 352.26 512.168 349.13 517.247 346.879C522.325 344.629 528.095 343.503 534.558 343.503C541.137 343.503 546.879 344.629 551.784 346.879C556.717 349.13 560.555 352.26 563.296 356.271C566.037 360.281 567.451 364.927 567.537 370.207H549.576ZM581.354 433.352V344.715H616.324C623.047 344.715 628.774 345.999 633.506 348.567C638.238 351.106 641.845 354.641 644.326 359.171C646.836 363.672 648.091 368.865 648.091 374.751C648.091 380.637 646.822 385.831 644.283 390.332C641.744 394.833 638.065 398.338 633.246 400.849C628.457 403.359 622.657 404.614 615.848 404.614H593.559V389.596H612.818C616.425 389.596 619.397 388.976 621.734 387.735C624.1 386.465 625.86 384.72 627.014 382.498C628.197 380.248 628.789 377.665 628.789 374.751C628.789 371.808 628.197 369.24 627.014 367.047C625.86 364.826 624.1 363.109 621.734 361.897C619.368 360.656 616.367 360.036 612.732 360.036H600.094V433.352H581.354ZM748.175 360.166V344.715H820.971V360.166H793.835V433.352H775.311V360.166H748.175ZM837.406 433.352H817.325L847.923 344.715H872.073L902.629 433.352H882.547L860.345 364.97H859.652L837.406 433.352ZM836.151 398.512H883.586V413.14H836.151V398.512ZM930.868 344.715L948.743 374.924H949.435L967.396 344.715H988.56L961.51 389.033L989.166 433.352H967.613L949.435 403.099H948.743L930.566 433.352H909.099L936.841 389.033L909.618 344.715H930.868ZM1019.16 344.715V433.352H1000.42V344.715H1019.16ZM1082.66 370.207C1082.31 366.716 1080.83 364.003 1078.2 362.07C1075.58 360.137 1072.01 359.171 1067.51 359.171C1064.45 359.171 1061.87 359.603 1059.77 360.469C1057.66 361.306 1056.04 362.474 1054.92 363.975C1053.82 365.475 1053.27 367.177 1053.27 369.082C1053.22 370.668 1053.55 372.053 1054.27 373.236C1055.02 374.419 1056.04 375.444 1057.34 376.309C1058.64 377.146 1060.14 377.882 1061.84 378.516C1063.55 379.122 1065.36 379.642 1067.3 380.075L1075.26 381.979C1079.13 382.844 1082.67 383.999 1085.91 385.441C1089.14 386.884 1091.94 388.658 1094.3 390.765C1096.67 392.871 1098.5 395.352 1099.8 398.209C1101.13 401.065 1101.8 404.34 1101.83 408.033C1101.8 413.457 1100.42 418.16 1097.68 422.142C1094.97 426.095 1091.04 429.168 1085.91 431.361C1080.8 433.525 1074.64 434.607 1067.43 434.607C1060.27 434.607 1054.04 433.51 1048.73 431.317C1043.45 429.125 1039.32 425.879 1036.35 421.58C1033.41 417.252 1031.86 411.899 1031.72 405.523H1049.85C1050.06 408.495 1050.91 410.976 1052.41 412.967C1053.94 414.929 1055.97 416.415 1058.51 417.425C1061.08 418.406 1063.98 418.896 1067.21 418.896C1070.38 418.896 1073.14 418.435 1075.48 417.511C1077.84 416.588 1079.67 415.304 1080.97 413.659C1082.27 412.015 1082.92 410.125 1082.92 407.99C1082.92 405.999 1082.33 404.325 1081.15 402.969C1079.99 401.613 1078.29 400.459 1076.04 399.507C1073.82 398.555 1071.09 397.689 1067.86 396.91L1058.21 394.487C1050.73 392.669 1044.83 389.827 1040.51 385.961C1036.18 382.094 1034.03 376.886 1034.06 370.337C1034.03 364.97 1035.46 360.281 1038.34 356.271C1041.26 352.26 1045.25 349.13 1050.33 346.879C1055.41 344.629 1061.18 343.503 1067.64 343.503C1074.22 343.503 1079.96 344.629 1084.87 346.879C1089.8 349.13 1093.64 352.26 1096.38 356.271C1099.12 360.281 1100.53 364.927 1100.62 370.207H1082.66Z" fill="white"/>
<line x1="498.359" y1="455.508" x2="1103.16" y2="455.508" stroke="#F66A26" stroke-width="3.04688"/>
<path d="M701.738 342.012C726.979 342.012 747.441 362.474 747.441 387.715C747.441 412.956 726.979 433.418 701.738 433.418C676.497 433.418 656.035 412.956 656.035 387.715C656.035 362.474 676.497 342.012 701.738 342.012ZM697.168 358.339C684.411 360.308 674.331 370.387 672.362 383.145H667.461V392.285H672.362C674.331 405.042 684.411 415.121 697.168 417.09V421.992H706.309V417.09C719.066 415.121 729.146 405.042 731.114 392.285H736.016V383.145H731.114C729.146 370.387 719.066 360.308 706.309 358.339V353.438H697.168V358.339Z" fill="#F66A26"/>
<defs>
<linearGradient id="paint0_linear_562_488" x1="800" y1="0" x2="800" y2="780" gradientUnits="userSpaceOnUse">
<stop/>
<stop offset="1" stop-color="#1C1C1C"/>
</linearGradient>
</defs>
</svg>
