<svg width="1600" height="780" viewBox="0 0 1600 780" fill="none" xmlns="http://www.w3.org/2000/svg">
<rect width="1600" height="780" fill="url(#paint0_linear_562_264)"/>
<path d="M1049.41 310.094V330H1045.77V310.094H1049.41ZM1054.43 310.094V313.156H1040.84V310.094H1054.43ZM1060.69 310.094H1063.96L1068.29 324.312L1072.59 310.094H1075.55L1069.65 330H1066.91L1060.69 310.094ZM1059.42 310.094H1062.5L1062.97 323V330H1059.42V310.094ZM1074.05 310.094H1077.14V330H1073.58V323L1074.05 310.094Z" fill="#FCFCFC"/>
<path d="M610.77 480H605.927L605.966 476.934H610.77C612.476 476.934 613.863 476.608 614.93 475.957C615.998 475.293 616.786 474.316 617.294 473.027C617.802 471.725 618.055 470.117 618.055 468.203V463.34C618.055 461.829 617.912 460.527 617.626 459.434C617.339 458.34 616.91 457.441 616.337 456.738C615.764 456.035 615.041 455.514 614.169 455.176C613.296 454.824 612.274 454.648 611.102 454.648H605.829V451.562H611.102C612.704 451.562 614.149 451.816 615.438 452.324C616.727 452.819 617.834 453.568 618.759 454.57C619.683 455.56 620.386 456.79 620.868 458.262C621.363 459.733 621.61 461.439 621.61 463.379V468.203C621.61 470.143 621.363 471.849 620.868 473.32C620.386 474.792 619.677 476.022 618.739 477.012C617.802 478.001 616.662 478.75 615.321 479.258C613.993 479.753 612.476 480 610.77 480ZM607.919 451.562V480H604.325V451.562H607.919ZM629.996 451.562H637.945C639.794 451.562 641.344 451.888 642.594 452.539C643.857 453.19 644.807 454.154 645.445 455.43C646.096 456.693 646.422 458.249 646.422 460.098C646.422 461.4 646.207 462.591 645.777 463.672C645.348 464.74 644.723 465.651 643.902 466.406C643.082 467.148 642.086 467.702 640.914 468.066L639.937 468.477H632.848L632.809 465.41H637.906C639 465.41 639.911 465.176 640.641 464.707C641.37 464.225 641.917 463.581 642.281 462.773C642.646 461.966 642.828 461.074 642.828 460.098C642.828 459.004 642.665 458.047 642.34 457.227C642.014 456.406 641.493 455.775 640.777 455.332C640.074 454.876 639.13 454.648 637.945 454.648H633.59V480H629.996V451.562ZM643.648 480L637.984 467.109L641.715 467.09L647.496 479.766V480H643.648ZM657.777 451.562V480H654.183V451.562H657.777ZM674.639 475.684L681.475 451.562H685.381L676.553 480H673.799L674.639 475.684ZM668.506 451.562L675.284 475.684L676.182 480H673.428L664.6 451.562H668.506ZM695.798 451.562V480H692.205V451.562H695.798ZM723.442 451.562V480H719.829L708.442 458.066V480H704.848V451.562H708.442L719.887 473.555V451.562H723.442ZM750.266 465.84V476.445C749.953 476.862 749.478 477.383 748.84 478.008C748.215 478.633 747.336 479.186 746.203 479.668C745.07 480.15 743.586 480.391 741.75 480.391C740.279 480.391 738.931 480.143 737.707 479.648C736.496 479.154 735.448 478.411 734.562 477.422C733.69 476.419 733.013 475.176 732.531 473.691C732.049 472.194 731.809 470.443 731.809 468.438V463.105C731.809 461.113 732.01 459.368 732.414 457.871C732.818 456.374 733.417 455.13 734.211 454.141C735.018 453.151 736.014 452.409 737.199 451.914C738.397 451.419 739.79 451.172 741.379 451.172C743.215 451.172 744.777 451.517 746.066 452.207C747.355 452.897 748.352 453.893 749.055 455.195C749.771 456.497 750.174 458.06 750.266 459.883H746.672C746.581 458.711 746.333 457.708 745.93 456.875C745.526 456.029 744.953 455.384 744.211 454.941C743.469 454.486 742.525 454.258 741.379 454.258C740.285 454.258 739.361 454.44 738.605 454.805C737.85 455.169 737.232 455.716 736.75 456.445C736.281 457.174 735.936 458.092 735.715 459.199C735.507 460.306 735.402 461.595 735.402 463.066V468.438C735.402 469.948 735.552 471.263 735.852 472.383C736.151 473.503 736.574 474.427 737.121 475.156C737.681 475.885 738.352 476.432 739.133 476.797C739.914 477.148 740.793 477.324 741.77 477.324C742.876 477.324 743.749 477.207 744.387 476.973C745.025 476.738 745.513 476.471 745.852 476.172C746.203 475.872 746.483 475.632 746.691 475.449V468.887H741.477V465.84H750.266ZM770.885 451.562H778.834C780.683 451.562 782.233 451.888 783.483 452.539C784.746 453.19 785.696 454.154 786.334 455.43C786.985 456.693 787.311 458.249 787.311 460.098C787.311 461.4 787.096 462.591 786.666 463.672C786.237 464.74 785.612 465.651 784.791 466.406C783.971 467.148 782.975 467.702 781.803 468.066L780.827 468.477H773.737L773.698 465.41H778.795C779.889 465.41 780.801 465.176 781.53 464.707C782.259 464.225 782.806 463.581 783.17 462.773C783.535 461.966 783.717 461.074 783.717 460.098C783.717 459.004 783.554 458.047 783.229 457.227C782.903 456.406 782.383 455.775 781.666 455.332C780.963 454.876 780.019 454.648 778.834 454.648H774.479V480H770.885V451.562ZM784.537 480L778.873 467.109L782.604 467.09L788.385 479.766V480H784.537ZM810.209 476.934V480H797.865V476.934H810.209ZM798.509 451.562V480H794.916V451.562H798.509ZM808.548 463.789V466.855H797.865V463.789H808.548ZM810.013 451.562V454.648H797.865V451.562H810.013ZM821.348 451.562V480H817.755V451.562H821.348ZM831.531 451.562H835.008L842.449 474.746L849.871 451.562H853.348L843.797 480H841.062L831.531 451.562ZM830.398 451.562H833.445L833.973 468.906V480H830.398V451.562ZM851.414 451.562H854.461V480H850.887V468.906L851.414 451.562ZM873.003 454.082L865.23 480H861.558L870.718 451.562H873.023L873.003 454.082ZM879.292 480L871.519 454.082L871.48 451.562H873.804L882.964 480H879.292ZM879.292 469.473V472.559H865.581V469.473H879.292ZM907.248 465.84V476.445C906.936 476.862 906.461 477.383 905.823 478.008C905.198 478.633 904.319 479.186 903.186 479.668C902.053 480.15 900.569 480.391 898.733 480.391C897.261 480.391 895.914 480.143 894.69 479.648C893.479 479.154 892.431 478.411 891.545 477.422C890.673 476.419 889.996 475.176 889.514 473.691C889.032 472.194 888.791 470.443 888.791 468.438V463.105C888.791 461.113 888.993 459.368 889.397 457.871C889.8 456.374 890.399 455.13 891.194 454.141C892.001 453.151 892.997 452.409 894.182 451.914C895.38 451.419 896.773 451.172 898.362 451.172C900.198 451.172 901.76 451.517 903.049 452.207C904.338 452.897 905.334 453.893 906.037 455.195C906.754 456.497 907.157 458.06 907.248 459.883H903.655C903.564 458.711 903.316 457.708 902.912 456.875C902.509 456.029 901.936 455.384 901.194 454.941C900.452 454.486 899.508 454.258 898.362 454.258C897.268 454.258 896.343 454.44 895.588 454.805C894.833 455.169 894.215 455.716 893.733 456.445C893.264 457.174 892.919 458.092 892.698 459.199C892.489 460.306 892.385 461.595 892.385 463.066V468.438C892.385 469.948 892.535 471.263 892.834 472.383C893.134 473.503 893.557 474.427 894.104 475.156C894.664 475.885 895.334 476.432 896.116 476.797C896.897 477.148 897.776 477.324 898.752 477.324C899.859 477.324 900.731 477.207 901.37 476.973C902.008 476.738 902.496 476.471 902.834 476.172C903.186 475.872 903.466 475.632 903.674 475.449V468.887H898.459V465.84H907.248ZM919.619 451.562V480H916.025V451.562H919.619ZM947.263 451.562V480H943.649L932.263 458.066V480H928.669V451.562H932.263L943.708 473.555V451.562H947.263ZM971.566 476.934V480H959.223V476.934H971.566ZM959.867 451.562V480H956.273V451.562H959.867ZM969.906 463.789V466.855H959.223V463.789H969.906ZM971.371 451.562V454.648H959.223V451.562H971.371ZM985.402 480H980.558L980.597 476.934H985.402C987.107 476.934 988.494 476.608 989.562 475.957C990.629 475.293 991.417 474.316 991.925 473.027C992.433 471.725 992.687 470.117 992.687 468.203V463.34C992.687 461.829 992.543 460.527 992.257 459.434C991.971 458.34 991.541 457.441 990.968 456.738C990.395 456.035 989.672 455.514 988.8 455.176C987.928 454.824 986.905 454.648 985.734 454.648H980.46V451.562H985.734C987.335 451.562 988.78 451.816 990.07 452.324C991.359 452.819 992.465 453.568 993.39 454.57C994.314 455.56 995.017 456.79 995.499 458.262C995.994 459.733 996.241 461.439 996.241 463.379V468.203C996.241 470.143 995.994 471.849 995.499 473.32C995.017 474.792 994.308 476.022 993.37 477.012C992.433 478.001 991.293 478.75 989.952 479.258C988.624 479.753 987.107 480 985.402 480ZM982.55 451.562V480H978.956V451.562H982.55Z" fill="#FCFCFC"/>
<path d="M620.96 355.2V372.24H648.44V388.08H620.96V406.56H652.04V423H600.44V338.76H652.04V355.2H620.96ZM698.874 423.854C692.611 423.854 686.999 422.837 682.038 420.804C677.077 418.771 673.091 415.761 670.082 411.776C667.154 407.791 665.609 402.992 665.446 397.38H687.65C687.975 400.552 689.073 402.992 690.944 404.7C692.815 406.327 695.255 407.14 698.264 407.14C701.355 407.14 703.795 406.449 705.584 405.066C707.373 403.602 708.268 401.609 708.268 399.088C708.268 396.973 707.536 395.225 706.072 393.842C704.689 392.459 702.941 391.321 700.826 390.426C698.793 389.531 695.865 388.515 692.042 387.376C686.511 385.668 681.997 383.96 678.5 382.252C675.003 380.544 671.993 378.023 669.472 374.688C666.951 371.353 665.69 367.002 665.69 361.634C665.69 353.663 668.577 347.441 674.352 342.968C680.127 338.413 687.65 336.136 696.922 336.136C706.357 336.136 713.961 338.413 719.736 342.968C725.511 347.441 728.601 353.704 729.008 361.756H706.438C706.275 358.991 705.259 356.835 703.388 355.29C701.517 353.663 699.118 352.85 696.19 352.85C693.669 352.85 691.635 353.541 690.09 354.924C688.545 356.225 687.772 358.137 687.772 360.658C687.772 363.423 689.073 365.579 691.676 367.124C694.279 368.669 698.345 370.337 703.876 372.126C709.407 373.997 713.88 375.786 717.296 377.494C720.793 379.202 723.803 381.683 726.324 384.936C728.845 388.189 730.106 392.378 730.106 397.502C730.106 402.382 728.845 406.815 726.324 410.8C723.884 414.785 720.305 417.957 715.588 420.316C710.871 422.675 705.299 423.854 698.874 423.854ZM805.86 338.76V355.2H783.54V423H763.02V355.2H740.7V338.76H805.86ZM861.519 423L843.999 391.2H839.079V423H818.559V338.76H852.999C859.639 338.76 865.279 339.92 869.919 342.24C874.639 344.56 878.159 347.76 880.479 351.84C882.799 355.84 883.959 360.32 883.959 365.28C883.959 370.88 882.359 375.88 879.159 380.28C876.039 384.68 871.399 387.8 865.239 389.64L884.679 423H861.519ZM839.079 376.68H851.799C855.559 376.68 858.359 375.76 860.199 373.92C862.119 372.08 863.079 369.48 863.079 366.12C863.079 362.92 862.119 360.4 860.199 358.56C858.359 356.72 855.559 355.8 851.799 355.8H839.079V376.68ZM919.76 338.76V423H899.24V338.76H919.76ZM1016.11 338.76L986.231 423H960.551L930.671 338.76H952.511L973.391 402.36L994.391 338.76H1016.11ZM1046.41 355.2V372.24H1073.89V388.08H1046.41V406.56H1077.49V423H1025.89V338.76H1077.49V355.2H1046.41Z" fill="#FFFAFA"/>
<path d="M589.16 339V355.44H566.84V423.24H546.32V355.44H524L517 339H589.16Z" fill="#FFFAFA"/>
<defs>
<linearGradient id="paint0_linear_562_264" x1="800" y1="0" x2="800" y2="780" gradientUnits="userSpaceOnUse">
<stop/>
<stop offset="1" stop-color="#1C1C1C"/>
</linearGradient>
</defs>
</svg>
