<svg width="1600" height="780" viewBox="0 0 1600 780" fill="none" xmlns="http://www.w3.org/2000/svg">
<rect width="1600" height="780" fill="url(#paint0_linear_562_265)"/>
<path d="M881.429 418.32C875.052 418.32 869.883 413.151 869.883 406.774V347.222C869.883 332.791 858.184 321.092 843.753 321.092C829.321 321.092 817.623 332.791 817.623 347.222V406.774C817.623 413.151 812.453 418.32 806.077 418.32C799.7 418.32 794.531 413.151 794.531 406.774V347.222C794.531 320.037 816.568 298 843.753 298C870.937 298 892.974 320.037 892.974 347.222V406.774C892.974 413.151 887.805 418.32 881.429 418.32Z" fill="black"/>
<path d="M881.429 418.32C875.052 418.32 869.883 413.151 869.883 406.774V347.222C869.883 332.791 858.184 321.092 843.753 321.092C829.321 321.092 817.623 332.791 817.623 347.222V406.774C817.623 413.151 812.453 418.32 806.077 418.32C799.7 418.32 794.531 413.151 794.531 406.774V347.222C794.531 320.037 816.568 298 843.753 298C870.937 298 892.974 320.037 892.974 347.222V406.774C892.974 413.151 887.805 418.32 881.429 418.32Z" fill="url(#paint1_linear_562_265)"/>
<path d="M538.092 313.192C538.092 306.815 532.922 301.646 526.546 301.646C520.169 301.646 515 306.815 515 313.192V376.998C515 400.491 534.045 419.535 557.537 419.535C569.755 419.535 580.77 414.384 588.529 406.135C596.287 414.384 607.302 419.535 619.52 419.535C643.013 419.535 662.058 400.491 662.058 376.998V313.192C662.058 306.815 656.888 301.646 650.512 301.646C644.135 301.646 638.966 306.815 638.966 313.192V376.998C638.966 387.737 630.26 396.443 619.52 396.443C608.781 396.443 600.075 387.737 600.075 376.998V326.561C600.075 320.184 594.905 315.015 588.529 315.015C582.152 315.015 576.983 320.184 576.983 326.561V376.998C576.983 387.737 568.277 396.443 557.537 396.443C546.798 396.443 538.092 387.737 538.092 376.998V313.192Z" fill="black"/>
<path d="M538.092 313.192C538.092 306.815 532.922 301.646 526.546 301.646C520.169 301.646 515 306.815 515 313.192V376.998C515 400.491 534.045 419.535 557.537 419.535C569.755 419.535 580.77 414.384 588.529 406.135C596.287 414.384 607.302 419.535 619.52 419.535C643.013 419.535 662.058 400.491 662.058 376.998V313.192C662.058 306.815 656.888 301.646 650.512 301.646C644.135 301.646 638.966 306.815 638.966 313.192V376.998C638.966 387.737 630.26 396.443 619.52 396.443C608.781 396.443 600.075 387.737 600.075 376.998V326.561C600.075 320.184 594.905 315.015 588.529 315.015C582.152 315.015 576.983 320.184 576.983 326.561V376.998C576.983 387.737 568.277 396.443 557.537 396.443C546.798 396.443 538.092 387.737 538.092 376.998V313.192Z" fill="url(#paint2_linear_562_265)"/>
<path fill-rule="evenodd" clip-rule="evenodd" d="M785.416 360.591C785.416 392.138 759.842 417.712 728.294 417.712C696.747 417.712 671.173 392.138 671.173 360.591C671.173 329.043 696.747 303.469 728.294 303.469C759.842 303.469 785.416 329.043 785.416 360.591ZM764.755 360.591C764.755 380.727 748.431 397.051 728.294 397.051C708.158 397.051 691.834 380.727 691.834 360.591C691.834 340.454 708.158 324.13 728.294 324.13C748.431 324.13 764.755 340.454 764.755 360.591Z" fill="black"/>
<path fill-rule="evenodd" clip-rule="evenodd" d="M785.416 360.591C785.416 392.138 759.842 417.712 728.294 417.712C696.747 417.712 671.173 392.138 671.173 360.591C671.173 329.043 696.747 303.469 728.294 303.469C759.842 303.469 785.416 329.043 785.416 360.591ZM764.755 360.591C764.755 380.727 748.431 397.051 728.294 397.051C708.158 397.051 691.834 380.727 691.834 360.591C691.834 340.454 708.158 324.13 728.294 324.13C748.431 324.13 764.755 340.454 764.755 360.591Z" fill="url(#paint3_linear_562_265)"/>
<path d="M1073.45 325.953C1079.83 325.953 1085 320.784 1085 314.407C1085 308.031 1079.83 302.861 1073.45 302.861H1032.74C1013.95 302.861 998.71 318.097 998.71 336.891C998.71 355.685 1013.95 370.921 1032.74 370.921H1054.59C1058.92 372.964 1061.91 377.366 1061.91 382.467C1061.91 389.515 1056.19 395.228 1049.15 395.228H1010.26C1003.88 395.228 998.71 400.397 998.71 406.774C998.71 413.151 1003.88 418.32 1010.26 418.32H1049.15C1068.95 418.32 1085 402.268 1085 382.467C1085 362.666 1068.95 346.614 1049.15 346.614H1034.14C1032.62 346.614 1031.17 346.907 1029.84 347.44C1025.21 346.169 1021.8 341.928 1021.8 336.891C1021.8 330.85 1026.7 325.953 1032.74 325.953H1073.45Z" fill="black"/>
<path d="M1073.45 325.953C1079.83 325.953 1085 320.784 1085 314.407C1085 308.031 1079.83 302.861 1073.45 302.861H1032.74C1013.95 302.861 998.71 318.097 998.71 336.891C998.71 355.685 1013.95 370.921 1032.74 370.921H1054.59C1058.92 372.964 1061.91 377.366 1061.91 382.467C1061.91 389.515 1056.19 395.228 1049.15 395.228H1010.26C1003.88 395.228 998.71 400.397 998.71 406.774C998.71 413.151 1003.88 418.32 1010.26 418.32H1049.15C1068.95 418.32 1085 402.268 1085 382.467C1085 362.666 1068.95 346.614 1049.15 346.614H1034.14C1032.62 346.614 1031.17 346.907 1029.84 347.44C1025.21 346.169 1021.8 341.928 1021.8 336.891C1021.8 330.85 1026.7 325.953 1032.74 325.953H1073.45Z" fill="url(#paint4_linear_562_265)"/>
<path d="M923.966 303.469C911.213 303.469 900.874 313.808 900.874 326.561V394.62C900.874 407.374 911.213 417.712 923.966 417.712V303.469Z" fill="black"/>
<path d="M923.966 303.469C911.213 303.469 900.874 313.808 900.874 326.561V394.62C900.874 407.374 911.213 417.712 923.966 417.712V303.469Z" fill="url(#paint5_linear_562_265)"/>
<path d="M935.512 417.712C932.621 417.712 929.78 417.497 927.004 417.083V396.053C929.734 396.706 932.582 397.051 935.512 397.051C955.648 397.051 971.972 380.727 971.972 360.591C971.972 340.454 955.648 324.13 935.512 324.13C932.582 324.13 929.734 324.476 927.004 325.128V304.098C929.78 303.684 932.621 303.469 935.512 303.469C967.059 303.469 992.633 329.043 992.633 360.591C992.633 392.138 967.059 417.712 935.512 417.712Z" fill="black"/>
<path d="M935.512 417.712C932.621 417.712 929.78 417.497 927.004 417.083V396.053C929.734 396.706 932.582 397.051 935.512 397.051C955.648 397.051 971.972 380.727 971.972 360.591C971.972 340.454 955.648 324.13 935.512 324.13C932.582 324.13 929.734 324.476 927.004 325.128V304.098C929.78 303.684 932.621 303.469 935.512 303.469C967.059 303.469 992.633 329.043 992.633 360.591C992.633 392.138 967.059 417.712 935.512 417.712Z" fill="url(#paint6_linear_562_265)"/>
<path d="M531.568 472.222L525.369 453.52H528.976L534.506 470.432H532.716L538.461 453.52H541.667L547.25 470.432H545.514L551.178 453.52H554.491L548.292 472.222H544.605L539.503 456.966H540.464L535.281 472.222H531.568ZM562.636 472.409C561.051 472.409 559.661 472.097 558.468 471.474C557.292 470.832 556.375 469.96 555.716 468.855C555.075 467.751 554.754 466.495 554.754 465.088C554.754 463.663 555.066 462.408 555.689 461.321C556.331 460.217 557.203 459.353 558.308 458.73C559.43 458.106 560.703 457.795 562.128 457.795C563.517 457.795 564.755 458.097 565.842 458.703C566.928 459.309 567.783 460.163 568.407 461.268C569.03 462.372 569.342 463.672 569.342 465.168C569.342 465.311 569.333 465.471 569.315 465.649C569.315 465.827 569.306 465.997 569.288 466.157H557.399V463.939H567.525L566.216 464.634C566.234 463.815 566.064 463.093 565.708 462.47C565.352 461.847 564.862 461.357 564.239 461.001C563.633 460.644 562.93 460.466 562.128 460.466C561.309 460.466 560.587 460.644 559.964 461.001C559.358 461.357 558.878 461.856 558.521 462.497C558.183 463.12 558.014 463.859 558.014 464.714V465.249C558.014 466.104 558.21 466.861 558.602 467.52C558.993 468.179 559.545 468.686 560.258 469.042C560.97 469.399 561.79 469.577 562.716 469.577C563.517 469.577 564.239 469.452 564.88 469.203C565.521 468.953 566.091 468.561 566.59 468.027L568.38 470.084C567.739 470.832 566.928 471.411 565.949 471.821C564.987 472.213 563.883 472.409 562.636 472.409ZM571.694 460.493L573.244 454.562L573.698 456.566C573.074 456.566 572.549 456.37 572.121 455.978C571.712 455.586 571.507 455.061 571.507 454.402C571.507 453.743 571.712 453.217 572.121 452.825C572.549 452.416 573.065 452.211 573.671 452.211C574.294 452.211 574.811 452.416 575.221 452.825C575.63 453.235 575.835 453.76 575.835 454.402C575.835 454.597 575.817 454.802 575.782 455.016C575.764 455.212 575.71 455.444 575.621 455.711C575.55 455.96 575.425 456.29 575.247 456.699L573.858 460.493H571.694ZM583.283 472.222L577.165 457.955H580.639L585.902 470.539H584.192L589.642 457.955H592.848L586.73 472.222H583.283ZM601.25 472.409C599.665 472.409 598.275 472.097 597.082 471.474C595.907 470.832 594.989 469.96 594.33 468.855C593.689 467.751 593.368 466.495 593.368 465.088C593.368 463.663 593.68 462.408 594.304 461.321C594.945 460.217 595.818 459.353 596.922 458.73C598.044 458.106 599.317 457.795 600.742 457.795C602.132 457.795 603.369 458.097 604.456 458.703C605.542 459.309 606.397 460.163 607.021 461.268C607.644 462.372 607.956 463.672 607.956 465.168C607.956 465.311 607.947 465.471 607.929 465.649C607.929 465.827 607.92 465.997 607.902 466.157H596.013V463.939H606.139L604.83 464.634C604.848 463.815 604.679 463.093 604.322 462.47C603.966 461.847 603.476 461.357 602.853 461.001C602.247 460.644 601.544 460.466 600.742 460.466C599.923 460.466 599.202 460.644 598.578 461.001C597.973 461.357 597.492 461.856 597.136 462.497C596.797 463.12 596.628 463.859 596.628 464.714V465.249C596.628 466.104 596.824 466.861 597.216 467.52C597.608 468.179 598.16 468.686 598.872 469.042C599.585 469.399 600.404 469.577 601.33 469.577C602.132 469.577 602.853 469.452 603.494 469.203C604.135 468.953 604.705 468.561 605.204 468.027L606.994 470.084C606.353 470.832 605.542 471.411 604.563 471.821C603.601 472.213 602.497 472.409 601.25 472.409ZM625.013 477.592C623.695 477.592 622.404 477.414 621.139 477.057C619.892 476.719 618.868 476.22 618.067 475.561L619.563 473.05C620.186 473.566 620.97 473.976 621.914 474.279C622.876 474.599 623.846 474.76 624.826 474.76C626.393 474.76 627.542 474.395 628.272 473.664C629.003 472.952 629.368 471.874 629.368 470.432V467.894L629.635 464.661L629.528 461.428V457.955H632.707V470.058C632.707 472.64 632.048 474.537 630.73 475.748C629.412 476.977 627.506 477.592 625.013 477.592ZM624.585 471.58C623.232 471.58 622.003 471.295 620.898 470.726C619.812 470.138 618.948 469.327 618.307 468.294C617.684 467.261 617.372 466.05 617.372 464.661C617.372 463.289 617.684 462.087 618.307 461.054C618.948 460.021 619.812 459.219 620.898 458.65C622.003 458.08 623.232 457.795 624.585 457.795C625.797 457.795 626.883 458.035 627.845 458.516C628.807 458.997 629.573 459.745 630.143 460.76C630.73 461.775 631.024 463.076 631.024 464.661C631.024 466.246 630.73 467.555 630.143 468.588C629.573 469.603 628.807 470.36 627.845 470.859C626.883 471.34 625.797 471.58 624.585 471.58ZM625.093 468.748C625.93 468.748 626.678 468.579 627.337 468.241C627.996 467.885 628.504 467.404 628.86 466.798C629.234 466.175 629.421 465.462 629.421 464.661C629.421 463.859 629.234 463.156 628.86 462.55C628.504 461.927 627.996 461.455 627.337 461.134C626.678 460.796 625.93 460.627 625.093 460.627C624.256 460.627 623.499 460.796 622.822 461.134C622.163 461.455 621.647 461.927 621.273 462.55C620.916 463.156 620.738 463.859 620.738 464.661C620.738 465.462 620.916 466.175 621.273 466.798C621.647 467.404 622.163 467.885 622.822 468.241C623.499 468.579 624.256 468.748 625.093 468.748ZM643.51 472.409C642.049 472.409 640.749 472.097 639.609 471.474C638.469 470.832 637.57 469.96 636.911 468.855C636.252 467.751 635.922 466.495 635.922 465.088C635.922 463.663 636.252 462.408 636.911 461.321C637.57 460.217 638.469 459.353 639.609 458.73C640.749 458.106 642.049 457.795 643.51 457.795C644.988 457.795 646.297 458.106 647.437 458.73C648.595 459.353 649.494 460.208 650.136 461.294C650.795 462.381 651.124 463.646 651.124 465.088C651.124 466.495 650.795 467.751 650.136 468.855C649.494 469.96 648.595 470.832 647.437 471.474C646.297 472.097 644.988 472.409 643.51 472.409ZM643.51 469.55C644.329 469.55 645.059 469.372 645.701 469.016C646.342 468.659 646.841 468.143 647.197 467.466C647.571 466.789 647.758 465.997 647.758 465.088C647.758 464.162 647.571 463.37 647.197 462.71C646.841 462.034 646.342 461.517 645.701 461.161C645.059 460.805 644.338 460.627 643.537 460.627C642.717 460.627 641.987 460.805 641.346 461.161C640.722 461.517 640.224 462.034 639.85 462.71C639.476 463.37 639.289 464.162 639.289 465.088C639.289 465.997 639.476 466.789 639.85 467.466C640.224 468.143 640.722 468.659 641.346 469.016C641.987 469.372 642.708 469.55 643.51 469.55ZM659.688 472.409C658.12 472.409 656.909 472.008 656.054 471.206C655.199 470.387 654.772 469.185 654.772 467.6V454.802H658.112V467.52C658.112 468.196 658.281 468.722 658.619 469.096C658.975 469.47 659.465 469.657 660.089 469.657C660.837 469.657 661.46 469.461 661.959 469.069L662.894 471.447C662.502 471.767 662.021 472.008 661.451 472.168C660.881 472.329 660.293 472.409 659.688 472.409ZM652.421 460.733V458.062H661.932V460.733H652.421ZM674.2 477.592C673.506 477.592 672.811 477.476 672.116 477.244C671.422 477.013 670.843 476.692 670.38 476.283L671.716 473.825C672.054 474.127 672.437 474.368 672.864 474.546C673.292 474.724 673.728 474.813 674.174 474.813C674.779 474.813 675.269 474.662 675.643 474.359C676.017 474.056 676.364 473.549 676.685 472.836L677.513 470.966L677.78 470.565L683.177 457.955H686.383L679.704 473.371C679.259 474.439 678.76 475.285 678.208 475.909C677.673 476.532 677.068 476.968 676.391 477.218C675.732 477.467 675.002 477.592 674.2 477.592ZM677.139 472.729L670.7 457.955H674.174L679.41 470.271L677.139 472.729ZM694.491 472.409C693.031 472.409 691.73 472.097 690.59 471.474C689.45 470.832 688.551 469.96 687.892 468.855C687.233 467.751 686.903 466.495 686.903 465.088C686.903 463.663 687.233 462.408 687.892 461.321C688.551 460.217 689.45 459.353 690.59 458.73C691.73 458.106 693.031 457.795 694.491 457.795C695.969 457.795 697.279 458.106 698.418 458.73C699.576 459.353 700.476 460.208 701.117 461.294C701.776 462.381 702.105 463.646 702.105 465.088C702.105 466.495 701.776 467.751 701.117 468.855C700.476 469.96 699.576 470.832 698.418 471.474C697.279 472.097 695.969 472.409 694.491 472.409ZM694.491 469.55C695.31 469.55 696.041 469.372 696.682 469.016C697.323 468.659 697.822 468.143 698.178 467.466C698.552 466.789 698.739 465.997 698.739 465.088C698.739 464.162 698.552 463.37 698.178 462.71C697.822 462.034 697.323 461.517 696.682 461.161C696.041 460.805 695.319 460.627 694.518 460.627C693.698 460.627 692.968 460.805 692.327 461.161C691.704 461.517 691.205 462.034 690.831 462.71C690.457 463.37 690.27 464.162 690.27 465.088C690.27 465.997 690.457 466.789 690.831 467.466C691.205 468.143 691.704 468.659 692.327 469.016C692.968 469.372 693.69 469.55 694.491 469.55ZM711.337 472.409C710.126 472.409 709.057 472.186 708.131 471.741C707.205 471.278 706.483 470.583 705.967 469.657C705.45 468.713 705.192 467.528 705.192 466.104V457.955H708.532V465.649C708.532 466.932 708.817 467.894 709.387 468.535C709.974 469.158 710.803 469.47 711.871 469.47C712.655 469.47 713.332 469.31 713.902 468.989C714.489 468.668 714.944 468.187 715.264 467.546C715.603 466.905 715.772 466.112 715.772 465.168V457.955H719.111V472.222H715.932V468.374L716.493 469.55C716.012 470.476 715.309 471.189 714.383 471.687C713.456 472.168 712.441 472.409 711.337 472.409ZM723.484 472.222V457.955H726.663V461.882L726.289 460.733C726.717 459.772 727.385 459.041 728.293 458.543C729.219 458.044 730.368 457.795 731.74 457.795V460.974C731.597 460.938 731.463 460.92 731.339 460.92C731.214 460.903 731.089 460.894 730.965 460.894C729.7 460.894 728.694 461.268 727.946 462.016C727.198 462.746 726.824 463.841 726.824 465.302V472.222H723.484ZM745.239 472.222L740.003 457.955H743.155L747.644 470.539H746.148L750.85 457.955H753.655L758.224 470.539H756.754L761.376 457.955H764.342L759.079 472.222H755.873L751.705 461.081H752.693L748.445 472.222H745.239ZM774.984 472.222V469.336L774.797 468.722V463.672C774.797 462.693 774.503 461.936 773.916 461.401C773.328 460.849 772.437 460.573 771.244 460.573C770.442 460.573 769.65 460.698 768.866 460.947C768.1 461.197 767.45 461.544 766.916 461.989L765.607 459.558C766.373 458.97 767.281 458.534 768.332 458.249C769.4 457.946 770.505 457.795 771.645 457.795C773.711 457.795 775.305 458.293 776.427 459.291C777.567 460.27 778.137 461.793 778.137 463.859V472.222H774.984ZM770.496 472.409C769.427 472.409 768.492 472.231 767.691 471.874C766.889 471.5 766.266 470.993 765.82 470.352C765.393 469.692 765.179 468.953 765.179 468.134C765.179 467.332 765.366 466.611 765.74 465.97C766.132 465.329 766.764 464.821 767.637 464.447C768.51 464.073 769.668 463.886 771.11 463.886H775.251V466.104H771.351C770.211 466.104 769.445 466.291 769.053 466.665C768.661 467.021 768.465 467.466 768.465 468C768.465 468.606 768.706 469.087 769.187 469.443C769.668 469.799 770.336 469.977 771.191 469.977C772.01 469.977 772.74 469.79 773.381 469.416C774.04 469.042 774.512 468.49 774.797 467.76L775.358 469.764C775.038 470.601 774.459 471.251 773.622 471.714C772.802 472.177 771.76 472.409 770.496 472.409ZM782.423 472.222V457.955H785.602V461.882L785.228 460.733C785.656 459.772 786.324 459.041 787.232 458.543C788.158 458.044 789.307 457.795 790.678 457.795V460.974C790.536 460.938 790.402 460.92 790.278 460.92C790.153 460.903 790.028 460.894 789.904 460.894C788.639 460.894 787.633 461.268 786.885 462.016C786.137 462.746 785.762 463.841 785.762 465.302V472.222H782.423ZM793.511 472.222V457.955H796.691V461.882L796.317 460.733C796.744 459.772 797.412 459.041 798.32 458.543C799.247 458.044 800.395 457.795 801.767 457.795V460.974C801.624 460.938 801.491 460.92 801.366 460.92C801.241 460.903 801.117 460.894 800.992 460.894C799.728 460.894 798.721 461.268 797.973 462.016C797.225 462.746 796.851 463.841 796.851 465.302V472.222H793.511ZM812.372 472.222V469.336L812.185 468.722V463.672C812.185 462.693 811.891 461.936 811.304 461.401C810.716 460.849 809.825 460.573 808.632 460.573C807.83 460.573 807.038 460.698 806.254 460.947C805.488 461.197 804.838 461.544 804.304 461.989L802.995 459.558C803.76 458.97 804.669 458.534 805.72 458.249C806.788 457.946 807.893 457.795 809.033 457.795C811.099 457.795 812.693 458.293 813.815 459.291C814.955 460.27 815.525 461.793 815.525 463.859V472.222H812.372ZM807.884 472.409C806.815 472.409 805.88 472.231 805.079 471.874C804.277 471.5 803.654 470.993 803.208 470.352C802.781 469.692 802.567 468.953 802.567 468.134C802.567 467.332 802.754 466.611 803.128 465.97C803.52 465.329 804.152 464.821 805.025 464.447C805.898 464.073 807.056 463.886 808.498 463.886H812.639V466.104H808.739C807.599 466.104 806.833 466.291 806.441 466.665C806.049 467.021 805.853 467.466 805.853 468C805.853 468.606 806.094 469.087 806.575 469.443C807.056 469.799 807.723 469.977 808.578 469.977C809.398 469.977 810.128 469.79 810.769 469.416C811.428 469.042 811.9 468.49 812.185 467.76L812.746 469.764C812.426 470.601 811.847 471.251 811.01 471.714C810.19 472.177 809.148 472.409 807.884 472.409ZM827.906 457.795C829.046 457.795 830.061 458.017 830.952 458.463C831.86 458.908 832.573 459.594 833.089 460.52C833.606 461.428 833.864 462.604 833.864 464.046V472.222H830.524V464.474C830.524 463.209 830.221 462.265 829.616 461.642C829.028 461.018 828.2 460.707 827.131 460.707C826.347 460.707 825.653 460.867 825.047 461.188C824.442 461.508 823.97 461.989 823.631 462.63C823.311 463.254 823.15 464.046 823.15 465.008V472.222H819.811V457.955H822.99V461.802L822.429 460.627C822.928 459.718 823.649 459.024 824.593 458.543C825.555 458.044 826.659 457.795 827.906 457.795ZM843.47 472.409C841.903 472.409 840.692 472.008 839.837 471.206C838.982 470.387 838.555 469.185 838.555 467.6V454.802H841.894V467.52C841.894 468.196 842.063 468.722 842.402 469.096C842.758 469.47 843.248 469.657 843.871 469.657C844.619 469.657 845.243 469.461 845.741 469.069L846.676 471.447C846.285 471.767 845.804 472.008 845.234 472.168C844.664 472.329 844.076 472.409 843.47 472.409ZM836.203 460.733V458.062H845.715V460.733H836.203ZM850.338 477.592C849.644 477.592 848.949 477.476 848.254 477.244C847.56 477.013 846.981 476.692 846.518 476.283L847.854 473.825C848.192 474.127 848.575 474.368 849.002 474.546C849.43 474.724 849.866 474.813 850.312 474.813C850.917 474.813 851.407 474.662 851.781 474.359C852.155 474.056 852.502 473.549 852.823 472.836L853.651 470.966L853.918 470.565L859.315 457.955H862.521L855.842 473.371C855.397 474.439 854.898 475.285 854.346 475.909C853.811 476.532 853.206 476.968 852.529 477.218C851.87 477.467 851.14 477.592 850.338 477.592ZM853.277 472.729L846.838 457.955H850.312L855.548 470.271L853.277 472.729ZM875.145 472.222L869.908 457.955H873.061L877.549 470.539H876.053L880.755 457.955H883.561L888.129 470.539H886.66L891.282 457.955H894.247L888.984 472.222H885.778L881.61 461.081H882.599L878.351 472.222H875.145ZM902.564 472.409C901.104 472.409 899.803 472.097 898.663 471.474C897.524 470.832 896.624 469.96 895.965 468.855C895.306 467.751 894.977 466.495 894.977 465.088C894.977 463.663 895.306 462.408 895.965 461.321C896.624 460.217 897.524 459.353 898.663 458.73C899.803 458.106 901.104 457.795 902.564 457.795C904.042 457.795 905.352 458.106 906.491 458.73C907.649 459.353 908.549 460.208 909.19 461.294C909.849 462.381 910.178 463.646 910.178 465.088C910.178 466.495 909.849 467.751 909.19 468.855C908.549 469.96 907.649 470.832 906.491 471.474C905.352 472.097 904.042 472.409 902.564 472.409ZM902.564 469.55C903.383 469.55 904.114 469.372 904.755 469.016C905.396 468.659 905.895 468.143 906.251 467.466C906.625 466.789 906.812 465.997 906.812 465.088C906.812 464.162 906.625 463.37 906.251 462.71C905.895 462.034 905.396 461.517 904.755 461.161C904.114 460.805 903.392 460.627 902.591 460.627C901.771 460.627 901.041 460.805 900.4 461.161C899.777 461.517 899.278 462.034 898.904 462.71C898.53 463.37 898.343 464.162 898.343 465.088C898.343 465.997 898.53 466.789 898.904 467.466C899.278 468.143 899.777 468.659 900.4 469.016C901.041 469.372 901.763 469.55 902.564 469.55ZM913.372 472.222V457.955H916.551V461.882L916.177 460.733C916.605 459.772 917.273 459.041 918.181 458.543C919.107 458.044 920.256 457.795 921.627 457.795V460.974C921.485 460.938 921.351 460.92 921.227 460.92C921.102 460.903 920.977 460.894 920.853 460.894C919.588 460.894 918.582 461.268 917.834 462.016C917.086 462.746 916.712 463.841 916.712 465.302V472.222H913.372ZM924.46 472.222V457.955H927.64V461.882L927.266 460.733C927.693 459.772 928.361 459.041 929.269 458.543C930.196 458.044 931.344 457.795 932.716 457.795V460.974C932.573 460.938 932.44 460.92 932.315 460.92C932.191 460.903 932.066 460.894 931.941 460.894C930.677 460.894 929.67 461.268 928.922 462.016C928.174 462.746 927.8 463.841 927.8 465.302V472.222H924.46ZM935.549 472.222V457.955H938.889V472.222H935.549ZM937.232 455.604C936.609 455.604 936.092 455.408 935.683 455.016C935.291 454.624 935.095 454.152 935.095 453.6C935.095 453.03 935.291 452.558 935.683 452.184C936.092 451.792 936.609 451.596 937.232 451.596C937.856 451.596 938.363 451.783 938.755 452.157C939.165 452.514 939.369 452.968 939.369 453.52C939.369 454.108 939.174 454.606 938.782 455.016C938.39 455.408 937.873 455.604 937.232 455.604ZM949.978 472.409C948.393 472.409 947.003 472.097 945.81 471.474C944.634 470.832 943.717 469.96 943.058 468.855C942.417 467.751 942.096 466.495 942.096 465.088C942.096 463.663 942.408 462.408 943.031 461.321C943.673 460.217 944.545 459.353 945.65 458.73C946.772 458.106 948.045 457.795 949.47 457.795C950.859 457.795 952.097 458.097 953.184 458.703C954.27 459.309 955.125 460.163 955.749 461.268C956.372 462.372 956.684 463.672 956.684 465.168C956.684 465.311 956.675 465.471 956.657 465.649C956.657 465.827 956.648 465.997 956.63 466.157H944.741V463.939H954.867L953.558 464.634C953.576 463.815 953.406 463.093 953.05 462.47C952.694 461.847 952.204 461.357 951.581 461.001C950.975 460.644 950.272 460.466 949.47 460.466C948.651 460.466 947.929 460.644 947.306 461.001C946.7 461.357 946.22 461.856 945.863 462.497C945.525 463.12 945.356 463.859 945.356 464.714V465.249C945.356 466.104 945.552 466.861 945.943 467.52C946.335 468.179 946.887 468.686 947.6 469.042C948.312 469.399 949.132 469.577 950.058 469.577C950.859 469.577 951.581 469.452 952.222 469.203C952.863 468.953 953.433 468.561 953.932 468.027L955.722 470.084C955.081 470.832 954.27 471.411 953.291 471.821C952.329 472.213 951.225 472.409 949.978 472.409ZM964.3 472.409C963.106 472.409 961.958 472.257 960.853 471.955C959.767 471.634 958.903 471.251 958.262 470.806L959.544 468.268C960.185 468.677 960.951 469.016 961.842 469.283C962.732 469.55 963.623 469.684 964.514 469.684C965.564 469.684 966.321 469.541 966.785 469.256C967.265 468.971 967.506 468.588 967.506 468.107C967.506 467.715 967.346 467.422 967.025 467.226C966.704 467.012 966.286 466.852 965.769 466.745C965.253 466.638 964.674 466.54 964.033 466.451C963.409 466.362 962.777 466.246 962.136 466.104C961.512 465.943 960.942 465.721 960.426 465.436C959.909 465.133 959.491 464.732 959.17 464.233C958.85 463.735 958.689 463.076 958.689 462.256C958.689 461.348 958.948 460.564 959.464 459.905C959.981 459.228 960.702 458.712 961.628 458.356C962.572 457.982 963.685 457.795 964.968 457.795C965.93 457.795 966.9 457.901 967.88 458.115C968.86 458.329 969.67 458.632 970.311 459.024L969.029 461.562C968.352 461.152 967.666 460.876 966.972 460.733C966.295 460.573 965.618 460.493 964.941 460.493C963.926 460.493 963.169 460.644 962.67 460.947C962.189 461.25 961.949 461.633 961.949 462.096C961.949 462.523 962.109 462.844 962.43 463.058C962.75 463.272 963.169 463.441 963.685 463.565C964.202 463.69 964.772 463.797 965.395 463.886C966.036 463.957 966.669 464.073 967.292 464.233C967.916 464.394 968.485 464.616 969.002 464.901C969.536 465.168 969.964 465.551 970.284 466.05C970.605 466.549 970.765 467.199 970.765 468C970.765 468.891 970.498 469.666 969.964 470.325C969.447 470.984 968.708 471.5 967.746 471.874C966.785 472.231 965.636 472.409 964.3 472.409ZM985.433 472.409C984.24 472.409 983.091 472.257 981.987 471.955C980.9 471.634 980.036 471.251 979.395 470.806L980.678 468.268C981.319 468.677 982.085 469.016 982.975 469.283C983.866 469.55 984.756 469.684 985.647 469.684C986.698 469.684 987.455 469.541 987.918 469.256C988.399 468.971 988.639 468.588 988.639 468.107C988.639 467.715 988.479 467.422 988.158 467.226C987.838 467.012 987.419 466.852 986.903 466.745C986.386 466.638 985.807 466.54 985.166 466.451C984.543 466.362 983.91 466.246 983.269 466.104C982.646 465.943 982.076 465.721 981.559 465.436C981.043 465.133 980.624 464.732 980.304 464.233C979.983 463.735 979.823 463.076 979.823 462.256C979.823 461.348 980.081 460.564 980.598 459.905C981.114 459.228 981.835 458.712 982.762 458.356C983.706 457.982 984.819 457.795 986.101 457.795C987.063 457.795 988.034 457.901 989.013 458.115C989.993 458.329 990.803 458.632 991.445 459.024L990.162 461.562C989.485 461.152 988.8 460.876 988.105 460.733C987.428 460.573 986.751 460.493 986.074 460.493C985.059 460.493 984.302 460.644 983.804 460.947C983.323 461.25 983.082 461.633 983.082 462.096C983.082 462.523 983.242 462.844 983.563 463.058C983.884 463.272 984.302 463.441 984.819 463.565C985.335 463.69 985.905 463.797 986.529 463.886C987.17 463.957 987.802 464.073 988.426 464.233C989.049 464.394 989.619 464.616 990.135 464.901C990.67 465.168 991.097 465.551 991.418 466.05C991.738 466.549 991.899 467.199 991.899 468C991.899 468.891 991.632 469.666 991.097 470.325C990.581 470.984 989.842 471.5 988.88 471.874C987.918 472.231 986.769 472.409 985.433 472.409ZM1001.19 472.409C999.726 472.409 998.426 472.097 997.286 471.474C996.146 470.832 995.247 469.96 994.588 468.855C993.929 467.751 993.599 466.495 993.599 465.088C993.599 463.663 993.929 462.408 994.588 461.321C995.247 460.217 996.146 459.353 997.286 458.73C998.426 458.106 999.726 457.795 1001.19 457.795C1002.67 457.795 1003.97 458.106 1005.11 458.73C1006.27 459.353 1007.17 460.208 1007.81 461.294C1008.47 462.381 1008.8 463.646 1008.8 465.088C1008.8 466.495 1008.47 467.751 1007.81 468.855C1007.17 469.96 1006.27 470.832 1005.11 471.474C1003.97 472.097 1002.67 472.409 1001.19 472.409ZM1001.19 469.55C1002.01 469.55 1002.74 469.372 1003.38 469.016C1004.02 468.659 1004.52 468.143 1004.87 467.466C1005.25 466.789 1005.43 465.997 1005.43 465.088C1005.43 464.162 1005.25 463.37 1004.87 462.71C1004.52 462.034 1004.02 461.517 1003.38 461.161C1002.74 460.805 1002.02 460.627 1001.21 460.627C1000.39 460.627 999.664 460.805 999.023 461.161C998.399 461.517 997.901 462.034 997.527 462.71C997.153 463.37 996.966 464.162 996.966 465.088C996.966 465.997 997.153 466.789 997.527 467.466C997.901 468.143 998.399 468.659 999.023 469.016C999.664 469.372 1000.39 469.55 1001.19 469.55ZM1011.99 472.222V457.955H1015.17V461.882L1014.8 460.733C1015.23 459.772 1015.9 459.041 1016.8 458.543C1017.73 458.044 1018.88 457.795 1020.25 457.795V460.974C1020.11 460.938 1019.97 460.92 1019.85 460.92C1019.72 460.903 1019.6 460.894 1019.48 460.894C1018.21 460.894 1017.2 461.268 1016.46 462.016C1015.71 462.746 1015.33 463.841 1015.33 465.302V472.222H1011.99ZM1028.98 472.409C1027.41 472.409 1026.2 472.008 1025.34 471.206C1024.49 470.387 1024.06 469.185 1024.06 467.6V454.802H1027.4V467.52C1027.4 468.196 1027.57 468.722 1027.91 469.096C1028.26 469.47 1028.75 469.657 1029.38 469.657C1030.12 469.657 1030.75 469.461 1031.25 469.069L1032.18 471.447C1031.79 471.767 1031.31 472.008 1030.74 472.168C1030.17 472.329 1029.58 472.409 1028.98 472.409ZM1021.71 460.733V458.062H1031.22V460.733H1021.71ZM1041.16 472.409C1039.58 472.409 1038.19 472.097 1037 471.474C1035.82 470.832 1034.9 469.96 1034.24 468.855C1033.6 467.751 1033.28 466.495 1033.28 465.088C1033.28 463.663 1033.59 462.408 1034.22 461.321C1034.86 460.217 1035.73 459.353 1036.84 458.73C1037.96 458.106 1039.23 457.795 1040.66 457.795C1042.05 457.795 1043.28 458.097 1044.37 458.703C1045.46 459.309 1046.31 460.163 1046.94 461.268C1047.56 462.372 1047.87 463.672 1047.87 465.168C1047.87 465.311 1047.86 465.471 1047.84 465.649C1047.84 465.827 1047.83 465.997 1047.82 466.157H1035.93V463.939H1046.05L1044.74 464.634C1044.76 463.815 1044.59 463.093 1044.24 462.47C1043.88 461.847 1043.39 461.357 1042.77 461.001C1042.16 460.644 1041.46 460.466 1040.66 460.466C1039.84 460.466 1039.12 460.644 1038.49 461.001C1037.89 461.357 1037.41 461.856 1037.05 462.497C1036.71 463.12 1036.54 463.859 1036.54 464.714V465.249C1036.54 466.104 1036.74 466.861 1037.13 467.52C1037.52 468.179 1038.07 468.686 1038.79 469.042C1039.5 469.399 1040.32 469.577 1041.24 469.577C1042.05 469.577 1042.77 469.452 1043.41 469.203C1044.05 468.953 1044.62 468.561 1045.12 468.027L1046.91 470.084C1046.27 470.832 1045.46 471.411 1044.48 471.821C1043.52 472.213 1042.41 472.409 1041.16 472.409ZM1057.12 472.409C1055.74 472.409 1054.51 472.106 1053.4 471.5C1052.32 470.877 1051.46 470.022 1050.84 468.936C1050.21 467.849 1049.9 466.567 1049.9 465.088C1049.9 463.61 1050.21 462.328 1050.84 461.241C1051.46 460.155 1052.32 459.309 1053.4 458.703C1054.51 458.097 1055.74 457.795 1057.12 457.795C1058.31 457.795 1059.38 458.062 1060.32 458.596C1061.27 459.113 1062.01 459.905 1062.57 460.974C1063.12 462.043 1063.39 463.414 1063.39 465.088C1063.39 466.745 1063.13 468.116 1062.59 469.203C1062.06 470.271 1061.32 471.073 1060.38 471.607C1059.43 472.142 1058.35 472.409 1057.12 472.409ZM1057.52 469.55C1058.32 469.55 1059.03 469.372 1059.65 469.016C1060.3 468.659 1060.8 468.143 1061.18 467.466C1061.57 466.789 1061.77 465.997 1061.77 465.088C1061.77 464.162 1061.57 463.37 1061.18 462.71C1060.8 462.034 1060.3 461.517 1059.65 461.161C1059.03 460.805 1058.32 460.627 1057.52 460.627C1056.72 460.627 1055.99 460.805 1055.35 461.161C1054.73 461.517 1054.22 462.034 1053.83 462.71C1053.46 463.37 1053.27 464.162 1053.27 465.088C1053.27 465.997 1053.46 466.789 1053.83 467.466C1054.22 468.143 1054.73 468.659 1055.35 469.016C1055.99 469.372 1056.72 469.55 1057.52 469.55ZM1061.85 472.222V468.855L1061.98 465.062L1061.71 461.268V452.398H1065.02V472.222H1061.85ZM1069.63 466.023L1068.99 453.52H1072.95L1072.28 466.023H1069.63ZM1070.97 472.409C1070.35 472.409 1069.83 472.204 1069.42 471.794C1069.01 471.385 1068.81 470.895 1068.81 470.325C1068.81 469.755 1069.01 469.274 1069.42 468.882C1069.83 468.472 1070.35 468.268 1070.97 468.268C1071.59 468.268 1072.1 468.472 1072.49 468.882C1072.88 469.274 1073.08 469.755 1073.08 470.325C1073.08 470.895 1072.88 471.385 1072.49 471.794C1072.1 472.204 1071.59 472.409 1070.97 472.409Z" fill="#FCFCFC"/>
<defs>
<linearGradient id="paint0_linear_562_265" x1="800" y1="0" x2="800" y2="780" gradientUnits="userSpaceOnUse">
<stop/>
<stop offset="1" stop-color="#1C1C1C"/>
</linearGradient>
<linearGradient id="paint1_linear_562_265" x1="1085" y1="358.768" x2="515" y2="358.768" gradientUnits="userSpaceOnUse">
<stop stop-color="#FF9450"/>
<stop offset="0.510541" stop-color="#F86178"/>
<stop offset="1" stop-color="#B86FD9"/>
</linearGradient>
<linearGradient id="paint2_linear_562_265" x1="1085" y1="358.768" x2="515" y2="358.768" gradientUnits="userSpaceOnUse">
<stop stop-color="#FF9450"/>
<stop offset="0.510541" stop-color="#F86178"/>
<stop offset="1" stop-color="#B86FD9"/>
</linearGradient>
<linearGradient id="paint3_linear_562_265" x1="1085" y1="358.768" x2="515" y2="358.768" gradientUnits="userSpaceOnUse">
<stop stop-color="#FF9450"/>
<stop offset="0.510541" stop-color="#F86178"/>
<stop offset="1" stop-color="#B86FD9"/>
</linearGradient>
<linearGradient id="paint4_linear_562_265" x1="1085" y1="358.768" x2="515" y2="358.768" gradientUnits="userSpaceOnUse">
<stop stop-color="#FF9450"/>
<stop offset="0.510541" stop-color="#F86178"/>
<stop offset="1" stop-color="#B86FD9"/>
</linearGradient>
<linearGradient id="paint5_linear_562_265" x1="1085" y1="358.768" x2="515" y2="358.768" gradientUnits="userSpaceOnUse">
<stop stop-color="#FF9450"/>
<stop offset="0.510541" stop-color="#F86178"/>
<stop offset="1" stop-color="#B86FD9"/>
</linearGradient>
<linearGradient id="paint6_linear_562_265" x1="1085" y1="358.768" x2="515" y2="358.768" gradientUnits="userSpaceOnUse">
<stop stop-color="#FF9450"/>
<stop offset="0.510541" stop-color="#F86178"/>
<stop offset="1" stop-color="#B86FD9"/>
</linearGradient>
</defs>
</svg>
