<svg width="1600" height="780" viewBox="0 0 1600 780" fill="none" xmlns="http://www.w3.org/2000/svg">
<rect width="1600" height="780" fill="url(#paint0_linear_564_680)"/>
<path d="M456.447 336.223L456.573 336.097H524.962C526.352 336.097 527.49 337.361 527.49 338.625V347.095C527.49 348.864 526.858 350.508 525.846 351.898L487.797 403.221C486.912 404.359 487.544 405.876 489.061 405.876H524.962C526.352 405.876 527.49 407.013 527.49 408.404V422.056C527.49 423.447 526.352 424.584 524.962 424.584H454.804C453.287 424.584 452.275 423.447 452.275 422.056V413.587C452.275 411.817 452.907 410.174 453.919 408.783L491.968 357.46C492.853 356.323 492.221 354.806 490.704 354.806H456.447C455.056 354.806 453.919 353.668 453.919 352.277V338.752C453.919 337.361 455.183 336.223 456.447 336.223ZM538.964 336.223V336.097H608.363C609.754 336.097 610.891 337.361 610.891 338.625V352.277C610.891 353.668 609.754 354.806 608.363 354.806H562.982C561.465 354.806 560.453 355.943 560.453 357.334V368.458C560.453 369.849 561.591 370.986 562.982 370.986H603.307C604.697 370.986 605.835 372.124 605.835 373.514V387.167C605.835 388.557 604.697 389.695 603.307 389.695H562.982C561.465 389.695 560.453 390.833 560.453 392.223V403.347C560.453 404.738 561.591 405.876 562.982 405.876H608.363C609.754 405.876 610.891 407.013 610.891 408.404V422.056C610.891 423.447 609.754 424.584 608.363 424.584H538.964C537.447 424.584 536.435 423.447 536.435 422.056V338.752C536.435 337.361 537.573 336.223 538.964 336.223ZM623.649 336.223V336.097H663.721C690.141 336.097 703.414 345.325 703.414 363.149C703.414 381.099 690.141 390.201 663.721 390.201H647.667C646.024 390.201 645.139 391.086 645.139 392.729V422.056C645.139 423.447 643.875 424.584 642.611 424.584H623.649C622.132 424.584 621.121 423.447 621.121 422.056V338.752C621.121 337.361 622.258 336.223 623.649 336.223ZM645.139 369.09C645.139 370.733 646.024 371.618 647.667 371.618H663.721C673.328 371.618 678.132 368.837 678.132 363.275C678.132 357.587 673.328 354.932 663.721 354.932H647.667C646.024 354.932 645.139 355.691 645.139 357.46V369.09Z" fill="#009CFA"/>
<path d="M786.073 338.752V352.404C786.073 353.794 784.935 354.932 783.545 354.932H760.159C758.768 354.932 757.757 356.07 757.757 357.46V422.056C757.757 423.447 756.493 424.584 755.229 424.584H736.141C734.75 424.584 733.739 423.447 733.739 422.056V357.46C733.739 355.943 732.475 354.932 731.211 354.932H707.825C706.308 354.932 705.297 353.668 705.297 352.404V338.752C705.297 337.361 706.434 336.223 707.825 336.223H783.545C784.935 336.223 786.073 337.361 786.073 338.752ZM795.118 336.223V336.097H835.317C861.737 336.097 874.884 345.325 874.884 363.149C874.884 376.296 867.805 384.765 853.394 388.305C852.382 388.557 851.877 389.695 852.509 390.58L872.103 421.803C872.987 423.068 872.355 424.584 870.712 424.584H849.222C847.832 424.584 846.82 423.826 846.188 422.815L826.847 392.223C826.089 390.959 824.698 390.201 823.055 390.201H819.136C817.493 390.201 816.608 391.086 816.608 392.729V422.056C816.608 423.447 815.344 424.584 814.08 424.584H795.118C793.601 424.584 792.59 423.447 792.59 422.056V338.752C792.59 337.361 793.728 336.223 795.118 336.223ZM816.608 369.09C816.608 370.733 817.493 371.618 819.136 371.618H835.317C844.798 371.618 849.728 368.837 849.728 363.275C849.728 357.587 844.924 354.932 835.317 354.932H819.136C817.493 354.932 816.608 355.691 816.608 357.46V369.09ZM947.279 422.309L941.844 407.519C941.212 405.749 939.948 404.991 938.431 404.991H911.884C910.368 404.991 909.103 405.749 908.471 407.519L903.036 422.309C902.53 423.826 901.266 424.711 899.749 424.711H879.903C878.259 424.711 877.248 423.194 877.754 421.677L908.092 338.372C908.598 336.982 909.862 336.097 911.379 336.097H938.936C940.453 336.097 941.717 336.982 942.223 338.372L972.562 421.677C973.067 423.194 972.056 424.584 970.413 424.584H950.566C949.049 424.584 947.785 423.826 947.279 422.309ZM917.447 382.869C916.688 385.018 917.826 386.282 919.469 386.282H930.846C932.489 386.282 933.627 385.018 932.869 382.869L925.537 362.643C925.41 362.264 924.905 362.264 924.778 362.643L917.447 382.869ZM972.753 380.341C972.753 351.013 989.06 334.201 1017.38 334.201C1040.38 334.201 1054.41 343.429 1059.47 364.287C1059.6 365.803 1058.84 366.815 1057.45 366.815H1036.46C1035.2 366.815 1033.94 365.93 1033.68 364.792C1030.78 355.943 1025.34 352.783 1017.5 352.783C1005.11 352.783 998.035 362.011 998.035 380.341C998.035 398.797 1005.11 407.898 1017.5 407.898C1025.34 407.898 1030.78 404.864 1033.68 396.016C1034.06 394.752 1035.2 393.993 1036.46 393.993H1057.45C1058.84 393.993 1059.72 395.131 1059.47 396.521C1054.54 417.505 1040.38 426.607 1017.38 426.607C989.06 426.607 972.753 409.794 972.753 380.341ZM1071.02 336.223V336.097H1089.99C1091.38 336.097 1092.51 337.361 1092.51 338.625V363.528C1092.51 363.907 1093.15 364.287 1093.53 363.907L1116.28 337.993C1117.29 336.729 1118.81 336.097 1120.33 336.097H1143.96C1145.61 336.097 1146.37 337.74 1145.23 339.004L1112.61 375.79C1111.98 376.422 1111.98 377.56 1112.61 378.318L1149.15 421.803C1150.16 423.068 1149.4 424.584 1147.88 424.584H1124.24C1122.73 424.584 1121.08 423.952 1120.07 422.688L1093.4 390.959C1093.02 390.58 1092.51 390.833 1092.51 391.338V422.056C1092.51 423.447 1091.25 424.584 1089.99 424.584H1071.02C1069.51 424.584 1068.5 423.447 1068.5 422.056V338.752C1068.5 337.361 1069.63 336.223 1071.02 336.223Z" fill="#FCFCFC"/>
<defs>
<linearGradient id="paint0_linear_564_680" x1="800" y1="0" x2="800" y2="780" gradientUnits="userSpaceOnUse">
<stop/>
<stop offset="1" stop-color="#1C1C1C"/>
</linearGradient>
</defs>
</svg>
